<svg width="61" height="60" viewBox="0 0 61 60" fill="none" xmlns="http://www.w3.org/2000/svg">
<g id="Group 234">
<path id="Rectangle 348" d="M18.9188 21.6846C22.6846 31.9578 26.5832 36.0567 36.5013 40.4226L32.203 46.459C20.8141 41.0065 15.1414 31.8152 12.4698 24.6425L18.9188 21.6846Z" fill="#212121"/>
<path id="Rectangle 349" d="M22.0781 7.50176C24.0918 7.49389 25.6229 9.16947 25.4856 11.0668C25.2696 14.0526 25.4996 16.2068 26.1189 18.877C26.459 20.3437 25.6895 21.8334 24.4665 22.7929C22.8182 24.0862 21.5589 25.7341 20.5581 27.1527C19.1709 29.1189 14.3969 28.9776 13.3411 26.8356C11.1714 22.4335 9.70094 14.3232 12.8694 8.84379C13.3671 7.9831 14.3692 7.53191 15.4076 7.52785L22.0781 7.50176Z" fill="#212121"/>
<path id="Rectangle 350" d="M52.6454 40.0777C52.8959 38.1907 51.3187 36.5537 49.3077 36.4542C46.1432 36.2977 43.9064 35.823 41.174 34.9213C39.6731 34.426 38.0146 34.9683 36.8589 35.9995C35.3012 37.3893 33.4176 38.3718 31.806 39.1395C29.5723 40.2037 29.1467 44.6965 31.2714 45.944C35.6379 48.5076 43.9864 50.8616 50.1273 48.5499C51.0919 48.1868 51.6867 47.3015 51.8158 46.3285L52.6454 40.0777Z" fill="#212121"/>
</g>
</svg>
