<svg width="50" height="37" viewBox="0 0 50 37" fill="none" xmlns="http://www.w3.org/2000/svg">
<path id="Subtract" fill-rule="evenodd" clip-rule="evenodd" d="M45.4133 0C46.9115 0 48.2419 0.685288 49.0791 1.74526L24.7663 21.2013L0.670125 2.09856C1.47579 0.840036 2.9289 0 4.58764 0H45.4133ZM0.000488281 32.388V5.55097L17.2901 19.2577L0.0361295 32.9362C0.0126113 32.7566 0.000488281 32.5736 0.000488281 32.388ZM1.58173 35.6941C2.38678 36.361 3.4378 36.7647 4.58764 36.7647H45.4133C46.4016 36.7647 47.3169 36.4665 48.0658 35.9593L29.6935 21.257L26.3896 23.9009C25.4552 24.6486 24.094 24.6516 23.156 23.908L19.8024 21.2493L1.58173 35.6941ZM32.1919 19.2577L49.8751 33.4085C49.9571 33.0811 50.0005 32.7393 50.0005 32.388V5.00657L32.1919 19.2577Z" fill="#212121"/>
</svg>
