<svg width="1034" height="403" viewBox="0 0 1034 403" fill="none" xmlns="http://www.w3.org/2000/svg">
<rect width="1034" height="403" rx="6" fill="#F3F4F6"/>
<path d="M79.9259 341.96V340.24L86.6459 330.6H89.4059V339.98H91.2659V341.96H89.4059V345H87.1659V341.96H79.9259ZM87.2659 332.92L82.5459 339.98H87.2659V332.92ZM102.395 332.18L96.8351 345H94.5351L100.155 332.42H92.7551V330.48H102.395V332.18ZM104.346 337.52C104.346 335.213 104.733 333.413 105.506 332.12C106.293 330.813 107.64 330.16 109.546 330.16C111.453 330.16 112.793 330.813 113.566 332.12C114.353 333.413 114.746 335.213 114.746 337.52C114.746 339.853 114.353 341.68 113.566 343C112.793 344.307 111.453 344.96 109.546 344.96C107.64 344.96 106.293 344.307 105.506 343C104.733 341.68 104.346 339.853 104.346 337.52ZM112.506 337.52C112.506 336.44 112.433 335.527 112.286 334.78C112.153 334.033 111.873 333.427 111.446 332.96C111.02 332.48 110.386 332.24 109.546 332.24C108.706 332.24 108.073 332.48 107.646 332.96C107.22 333.427 106.933 334.033 106.786 334.78C106.653 335.527 106.586 336.44 106.586 337.52C106.586 338.64 106.653 339.58 106.786 340.34C106.92 341.1 107.2 341.713 107.626 342.18C108.066 342.647 108.706 342.88 109.546 342.88C110.386 342.88 111.02 342.647 111.446 342.18C111.886 341.713 112.173 341.1 112.306 340.34C112.44 339.58 112.506 338.64 112.506 337.52ZM125.019 343.06C125.859 343.06 126.592 342.887 127.219 342.54C127.859 342.18 128.359 341.653 128.719 340.96H131.459C130.939 342.293 130.106 343.32 128.959 344.04C127.812 344.76 126.499 345.12 125.019 345.12C123.459 345.12 122.072 344.7 120.859 343.86C119.646 343.007 118.799 341.873 118.319 340.46H116.479V338.9H117.959C117.932 338.527 117.919 338.233 117.919 338.02C117.919 337.807 117.932 337.513 117.959 337.14H116.479V335.58H118.319C118.799 334.167 119.646 333.04 120.859 332.2C122.072 331.347 123.459 330.92 125.019 330.92C126.486 330.92 127.792 331.287 128.939 332.02C130.099 332.74 130.939 333.767 131.459 335.1H128.719C128.359 334.407 127.859 333.887 127.219 333.54C126.592 333.18 125.859 333 125.019 333C124.046 333 123.186 333.227 122.439 333.68C121.706 334.133 121.146 334.767 120.759 335.58H125.019V337.14H120.319C120.279 337.42 120.259 337.713 120.259 338.02C120.259 338.327 120.279 338.62 120.319 338.9H125.019V340.46H120.759C121.146 341.287 121.706 341.927 122.439 342.38C123.186 342.833 124.046 343.06 125.019 343.06Z" fill="#212121"/>
<path d="M87.1045 143.8C86.9578 143.187 86.6911 142.727 86.3045 142.42C85.9178 142.113 85.3778 141.96 84.6845 141.96C83.6311 141.96 82.8445 142.367 82.3245 143.18C81.8045 143.98 81.5311 145.313 81.5045 147.18C81.8511 146.593 82.3578 146.14 83.0245 145.82C83.6911 145.5 84.4111 145.34 85.1845 145.34C86.0645 145.34 86.8378 145.533 87.5045 145.92C88.1845 146.293 88.7111 146.84 89.0845 147.56C89.4711 148.28 89.6645 149.14 89.6645 150.14C89.6645 151.073 89.4778 151.907 89.1045 152.64C88.7445 153.373 88.2045 153.953 87.4845 154.38C86.7645 154.793 85.8978 155 84.8845 155C83.5111 155 82.4311 154.7 81.6445 154.1C80.8711 153.487 80.3245 152.627 80.0045 151.52C79.6978 150.413 79.5445 149.033 79.5445 147.38C79.5445 142.5 81.2645 140.06 84.7045 140.06C86.0378 140.06 87.0845 140.42 87.8445 141.14C88.6178 141.86 89.0711 142.747 89.2045 143.8H87.1045ZM84.6845 147.26C83.8711 147.26 83.1778 147.507 82.6045 148C82.0445 148.48 81.7645 149.18 81.7645 150.1C81.7645 151.02 82.0245 151.753 82.5445 152.3C83.0778 152.833 83.8178 153.1 84.7645 153.1C85.6045 153.1 86.2645 152.84 86.7445 152.32C87.2378 151.8 87.4845 151.107 87.4845 150.24C87.4845 149.333 87.2445 148.613 86.7645 148.08C86.2978 147.533 85.6045 147.26 84.6845 147.26ZM101.336 142.18L95.7765 155H93.4765L99.0965 142.42H91.6965V140.48H101.336V142.18ZM103.288 147.52C103.288 145.213 103.675 143.413 104.448 142.12C105.235 140.813 106.581 140.16 108.488 140.16C110.395 140.16 111.735 140.813 112.508 142.12C113.295 143.413 113.688 145.213 113.688 147.52C113.688 149.853 113.295 151.68 112.508 153C111.735 154.307 110.395 154.96 108.488 154.96C106.581 154.96 105.235 154.307 104.448 153C103.675 151.68 103.288 149.853 103.288 147.52ZM111.448 147.52C111.448 146.44 111.375 145.527 111.228 144.78C111.095 144.033 110.815 143.427 110.388 142.96C109.961 142.48 109.328 142.24 108.488 142.24C107.648 142.24 107.015 142.48 106.588 142.96C106.161 143.427 105.875 144.033 105.728 144.78C105.595 145.527 105.528 146.44 105.528 147.52C105.528 148.64 105.595 149.58 105.728 150.34C105.861 151.1 106.141 151.713 106.568 152.18C107.008 152.647 107.648 152.88 108.488 152.88C109.328 152.88 109.961 152.647 110.388 152.18C110.828 151.713 111.115 151.1 111.248 150.34C111.381 149.58 111.448 148.64 111.448 147.52ZM123.96 153.06C124.8 153.06 125.534 152.887 126.16 152.54C126.8 152.18 127.3 151.653 127.66 150.96H130.4C129.88 152.293 129.047 153.32 127.9 154.04C126.754 154.76 125.44 155.12 123.96 155.12C122.4 155.12 121.014 154.7 119.8 153.86C118.587 153.007 117.74 151.873 117.26 150.46H115.42V148.9H116.9C116.874 148.527 116.86 148.233 116.86 148.02C116.86 147.807 116.874 147.513 116.9 147.14H115.42V145.58H117.26C117.74 144.167 118.587 143.04 119.8 142.2C121.014 141.347 122.4 140.92 123.96 140.92C125.427 140.92 126.734 141.287 127.88 142.02C129.04 142.74 129.88 143.767 130.4 145.1H127.66C127.3 144.407 126.8 143.887 126.16 143.54C125.534 143.18 124.8 143 123.96 143C122.987 143 122.127 143.227 121.38 143.68C120.647 144.133 120.087 144.767 119.7 145.58H123.96V147.14H119.26C119.22 147.42 119.2 147.713 119.2 148.02C119.2 148.327 119.22 148.62 119.26 148.9H123.96V150.46H119.7C120.087 151.287 120.647 151.927 121.38 152.38C122.127 152.833 122.987 153.06 123.96 153.06Z" fill="#212121"/>
<path d="M86.4287 236.8C86.282 236.187 86.0153 235.727 85.6287 235.42C85.242 235.113 84.702 234.96 84.0087 234.96C82.9553 234.96 82.1687 235.367 81.6487 236.18C81.1287 236.98 80.8553 238.313 80.8287 240.18C81.1753 239.593 81.682 239.14 82.3487 238.82C83.0153 238.5 83.7353 238.34 84.5087 238.34C85.3887 238.34 86.162 238.533 86.8287 238.92C87.5087 239.293 88.0353 239.84 88.4087 240.56C88.7953 241.28 88.9887 242.14 88.9887 243.14C88.9887 244.073 88.802 244.907 88.4287 245.64C88.0687 246.373 87.5287 246.953 86.8087 247.38C86.0887 247.793 85.222 248 84.2087 248C82.8353 248 81.7553 247.7 80.9687 247.1C80.1953 246.487 79.6487 245.627 79.3287 244.52C79.022 243.413 78.8687 242.033 78.8687 240.38C78.8687 235.5 80.5887 233.06 84.0287 233.06C85.362 233.06 86.4087 233.42 87.1687 234.14C87.942 234.86 88.3953 235.747 88.5287 236.8H86.4287ZM84.0087 240.26C83.1953 240.26 82.502 240.507 81.9287 241C81.3687 241.48 81.0887 242.18 81.0887 243.1C81.0887 244.02 81.3487 244.753 81.8687 245.3C82.402 245.833 83.142 246.1 84.0887 246.1C84.9287 246.1 85.5887 245.84 86.0687 245.32C86.562 244.8 86.8087 244.107 86.8087 243.24C86.8087 242.333 86.5687 241.613 86.0887 241.08C85.622 240.533 84.9287 240.26 84.0087 240.26ZM92.6807 244.9C93.9607 243.793 94.9674 242.887 95.7007 242.18C96.4474 241.46 97.0674 240.713 97.5607 239.94C98.054 239.167 98.3007 238.393 98.3007 237.62C98.3007 236.82 98.1074 236.193 97.7207 235.74C97.3474 235.287 96.754 235.06 95.9407 235.06C95.154 235.06 94.5407 235.313 94.1007 235.82C93.674 236.313 93.4474 236.98 93.4207 237.82H91.2207C91.2607 236.3 91.714 235.14 92.5807 234.34C93.4607 233.527 94.574 233.12 95.9207 233.12C97.374 233.12 98.5074 233.52 99.3207 234.32C100.147 235.12 100.561 236.187 100.561 237.52C100.561 238.48 100.314 239.407 99.8207 240.3C99.3407 241.18 98.7607 241.973 98.0807 242.68C97.414 243.373 96.5607 244.18 95.5207 245.1L94.6207 245.9H100.961V247.8H91.2407V246.14L92.6807 244.9ZM102.964 240.52C102.964 238.213 103.35 236.413 104.124 235.12C104.91 233.813 106.257 233.16 108.164 233.16C110.07 233.16 111.41 233.813 112.184 235.12C112.97 236.413 113.364 238.213 113.364 240.52C113.364 242.853 112.97 244.68 112.184 246C111.41 247.307 110.07 247.96 108.164 247.96C106.257 247.96 104.91 247.307 104.124 246C103.35 244.68 102.964 242.853 102.964 240.52ZM111.124 240.52C111.124 239.44 111.05 238.527 110.904 237.78C110.77 237.033 110.49 236.427 110.064 235.96C109.637 235.48 109.004 235.24 108.164 235.24C107.324 235.24 106.69 235.48 106.264 235.96C105.837 236.427 105.55 237.033 105.404 237.78C105.27 238.527 105.204 239.44 105.204 240.52C105.204 241.64 105.27 242.58 105.404 243.34C105.537 244.1 105.817 244.713 106.244 245.18C106.684 245.647 107.324 245.88 108.164 245.88C109.004 245.88 109.637 245.647 110.064 245.18C110.504 244.713 110.79 244.1 110.924 243.34C111.057 242.58 111.124 241.64 111.124 240.52ZM123.636 246.06C124.476 246.06 125.21 245.887 125.836 245.54C126.476 245.18 126.976 244.653 127.336 243.96H130.076C129.556 245.293 128.723 246.32 127.576 247.04C126.43 247.76 125.116 248.12 123.636 248.12C122.076 248.12 120.69 247.7 119.476 246.86C118.263 246.007 117.416 244.873 116.936 243.46H115.096V241.9H116.576C116.55 241.527 116.536 241.233 116.536 241.02C116.536 240.807 116.55 240.513 116.576 240.14H115.096V238.58H116.936C117.416 237.167 118.263 236.04 119.476 235.2C120.69 234.347 122.076 233.92 123.636 233.92C125.103 233.92 126.41 234.287 127.556 235.02C128.716 235.74 129.556 236.767 130.076 238.1H127.336C126.976 237.407 126.476 236.887 125.836 236.54C125.21 236.18 124.476 236 123.636 236C122.663 236 121.803 236.227 121.056 236.68C120.323 237.133 119.763 237.767 119.376 238.58H123.636V240.14H118.936C118.896 240.42 118.876 240.713 118.876 241.02C118.876 241.327 118.896 241.62 118.936 241.9H123.636V243.46H119.376C119.763 244.287 120.323 244.927 121.056 245.38C121.803 245.833 122.663 246.06 123.636 246.06Z" fill="#212121"/>
<line x1="202" y1="387" x2="202" y2="17" stroke="#404040" stroke-width="2"/>
<path d="M403 386L403 16" stroke="#404040" stroke-width="2"/>
<path d="M610 386L610 16" stroke="#404040" stroke-width="2"/>
<line x1="842" y1="386" x2="842" y2="16" stroke="#404040" stroke-width="2"/>
<line x1="15" y1="97" x2="1014" y2="97" stroke="#404040" stroke-width="2"/>
<line x1="17" y1="191" x2="1016" y2="191" stroke="#404040" stroke-width="2"/>
<line x1="15" y1="288" x2="1014" y2="288" stroke="#404040" stroke-width="2"/>
<path d="M259.665 48.18L254.105 61H251.805L257.425 48.42H250.025V46.48H259.665V48.18ZM272.671 49.8C273.538 49.8 274.311 49.98 274.991 50.34C275.685 50.7 276.225 51.2333 276.611 51.94C276.998 52.6467 277.191 53.5 277.191 54.5V61H274.931V54.84C274.931 53.8533 274.685 53.1 274.191 52.58C273.698 52.0467 273.025 51.78 272.171 51.78C271.318 51.78 270.638 52.0467 270.131 52.58C269.638 53.1 269.391 53.8533 269.391 54.84V61H267.111V49.98H269.391V51.24C269.765 50.7867 270.238 50.4333 270.811 50.18C271.398 49.9267 272.018 49.8 272.671 49.8ZM284.88 61.18C283.84 61.18 282.9 60.9467 282.06 60.48C281.22 60 280.56 59.3333 280.08 58.48C279.6 57.6133 279.36 56.6133 279.36 55.48C279.36 54.36 279.606 53.3667 280.1 52.5C280.593 51.6333 281.266 50.9667 282.12 50.5C282.973 50.0333 283.926 49.8 284.98 49.8C286.033 49.8 286.986 50.0333 287.84 50.5C288.693 50.9667 289.366 51.6333 289.86 52.5C290.353 53.3667 290.6 54.36 290.6 55.48C290.6 56.6 290.346 57.5933 289.84 58.46C289.333 59.3267 288.64 60 287.76 60.48C286.893 60.9467 285.933 61.18 284.88 61.18ZM284.88 59.2C285.466 59.2 286.013 59.06 286.52 58.78C287.04 58.5 287.46 58.08 287.78 57.52C288.1 56.96 288.26 56.28 288.26 55.48C288.26 54.68 288.106 54.0067 287.8 53.46C287.493 52.9 287.086 52.48 286.58 52.2C286.073 51.92 285.526 51.78 284.94 51.78C284.353 51.78 283.806 51.92 283.3 52.2C282.806 52.48 282.413 52.9 282.12 53.46C281.826 54.0067 281.68 54.68 281.68 55.48C281.68 56.6667 281.98 57.5867 282.58 58.24C283.193 58.88 283.96 59.2 284.88 59.2ZM292.094 55.48C292.094 54.3467 292.32 53.3533 292.774 52.5C293.24 51.6333 293.88 50.9667 294.694 50.5C295.507 50.0333 296.44 49.8 297.494 49.8C298.827 49.8 299.927 50.12 300.794 50.76C301.674 51.3867 302.267 52.2867 302.574 53.46H300.114C299.914 52.9133 299.594 52.4867 299.154 52.18C298.714 51.8733 298.16 51.72 297.494 51.72C296.56 51.72 295.814 52.0533 295.254 52.72C294.707 53.3733 294.434 54.2933 294.434 55.48C294.434 56.6667 294.707 57.5933 295.254 58.26C295.814 58.9267 296.56 59.26 297.494 59.26C298.814 59.26 299.687 58.68 300.114 57.52H302.574C302.254 58.64 301.654 59.5333 300.774 60.2C299.894 60.8533 298.8 61.18 297.494 61.18C296.44 61.18 295.507 60.9467 294.694 60.48C293.88 60 293.24 59.3333 292.774 58.48C292.32 57.6133 292.094 56.6133 292.094 55.48ZM307.126 46.2V61H304.846V46.2H307.126ZM320.219 55.22C320.219 55.6333 320.192 56.0067 320.139 56.34H311.719C311.786 57.22 312.112 57.9267 312.699 58.46C313.286 58.9933 314.006 59.26 314.859 59.26C316.086 59.26 316.952 58.7467 317.459 57.72H319.919C319.586 58.7333 318.979 59.5667 318.099 60.22C317.232 60.86 316.152 61.18 314.859 61.18C313.806 61.18 312.859 60.9467 312.019 60.48C311.192 60 310.539 59.3333 310.059 58.48C309.592 57.6133 309.359 56.6133 309.359 55.48C309.359 54.3467 309.586 53.3533 310.039 52.5C310.506 51.6333 311.152 50.9667 311.979 50.5C312.819 50.0333 313.779 49.8 314.859 49.8C315.899 49.8 316.826 50.0267 317.639 50.48C318.452 50.9333 319.086 51.5733 319.539 52.4C319.992 53.2133 320.219 54.1533 320.219 55.22ZM317.839 54.5C317.826 53.66 317.526 52.9867 316.939 52.48C316.352 51.9733 315.626 51.72 314.759 51.72C313.972 51.72 313.299 51.9733 312.739 52.48C312.179 52.9733 311.846 53.6467 311.739 54.5H317.839ZM326.903 49.8C327.756 49.8 328.51 49.9733 329.163 50.32C329.83 50.6533 330.35 51.0733 330.723 51.58V49.98H333.023V61.18C333.023 62.1933 332.81 63.0933 332.383 63.88C331.956 64.68 331.336 65.3067 330.523 65.76C329.723 66.2133 328.763 66.44 327.643 66.44C326.15 66.44 324.91 66.0867 323.923 65.38C322.936 64.6867 322.376 63.74 322.243 62.54H324.503C324.676 63.1133 325.043 63.5733 325.603 63.92C326.176 64.28 326.856 64.46 327.643 64.46C328.563 64.46 329.303 64.18 329.863 63.62C330.436 63.06 330.723 62.2467 330.723 61.18V59.34C330.336 59.86 329.81 60.3 329.143 60.66C328.49 61.0067 327.743 61.18 326.903 61.18C325.943 61.18 325.063 60.94 324.263 60.46C323.476 59.9667 322.85 59.2867 322.383 58.42C321.93 57.54 321.703 56.5467 321.703 55.44C321.703 54.3333 321.93 53.3533 322.383 52.5C322.85 51.6467 323.476 50.9867 324.263 50.52C325.063 50.04 325.943 49.8 326.903 49.8ZM330.723 55.48C330.723 54.72 330.563 54.06 330.243 53.5C329.936 52.94 329.53 52.5133 329.023 52.22C328.516 51.9267 327.97 51.78 327.383 51.78C326.796 51.78 326.25 51.9267 325.743 52.22C325.236 52.5 324.823 52.92 324.503 53.48C324.196 54.0267 324.043 54.68 324.043 55.44C324.043 56.2 324.196 56.8667 324.503 57.44C324.823 58.0133 325.236 58.4533 325.743 58.76C326.263 59.0533 326.81 59.2 327.383 59.2C327.97 59.2 328.516 59.0533 329.023 58.76C329.53 58.4667 329.936 58.04 330.243 57.48C330.563 56.9067 330.723 56.24 330.723 55.48ZM340.798 61.18C339.758 61.18 338.818 60.9467 337.978 60.48C337.138 60 336.478 59.3333 335.998 58.48C335.518 57.6133 335.278 56.6133 335.278 55.48C335.278 54.36 335.524 53.3667 336.018 52.5C336.511 51.6333 337.184 50.9667 338.038 50.5C338.891 50.0333 339.844 49.8 340.898 49.8C341.951 49.8 342.904 50.0333 343.758 50.5C344.611 50.9667 345.284 51.6333 345.778 52.5C346.271 53.3667 346.518 54.36 346.518 55.48C346.518 56.6 346.264 57.5933 345.758 58.46C345.251 59.3267 344.558 60 343.678 60.48C342.811 60.9467 341.851 61.18 340.798 61.18ZM340.798 59.2C341.384 59.2 341.931 59.06 342.438 58.78C342.958 58.5 343.378 58.08 343.698 57.52C344.018 56.96 344.178 56.28 344.178 55.48C344.178 54.68 344.024 54.0067 343.718 53.46C343.411 52.9 343.004 52.48 342.498 52.2C341.991 51.92 341.444 51.78 340.858 51.78C340.271 51.78 339.724 51.92 339.218 52.2C338.724 52.48 338.331 52.9 338.038 53.46C337.744 54.0067 337.598 54.68 337.598 55.48C337.598 56.6667 337.898 57.5867 338.498 58.24C339.111 58.88 339.878 59.2 340.798 59.2ZM342.958 46.84L338.538 49.02V47.34L342.958 44.9V46.84ZM363.571 49.98L360.151 61H357.751L355.531 52.86L353.311 61H350.911L347.471 49.98H349.791L352.091 58.84L354.431 49.98H356.811L359.051 58.8L361.331 49.98H363.571Z" fill="#212121"/>
<path d="M78.0623 54.02C78.0623 52.66 78.3756 51.44 79.0023 50.36C79.6423 49.28 80.5023 48.44 81.5823 47.84C82.6756 47.2267 83.8689 46.92 85.1623 46.92C86.6423 46.92 87.9556 47.2867 89.1023 48.02C90.2623 48.74 91.1023 49.7667 91.6223 51.1H88.8823C88.5223 50.3667 88.0223 49.82 87.3823 49.46C86.7423 49.1 86.0023 48.92 85.1623 48.92C84.2423 48.92 83.4223 49.1267 82.7023 49.54C81.9823 49.9533 81.4156 50.5467 81.0023 51.32C80.6023 52.0933 80.4023 52.9933 80.4023 54.02C80.4023 55.0467 80.6023 55.9467 81.0023 56.72C81.4156 57.4933 81.9823 58.0933 82.7023 58.52C83.4223 58.9333 84.2423 59.14 85.1623 59.14C86.0023 59.14 86.7423 58.96 87.3823 58.6C88.0223 58.24 88.5223 57.6933 88.8823 56.96H91.6223C91.1023 58.2933 90.2623 59.32 89.1023 60.04C87.9556 60.76 86.6423 61.12 85.1623 61.12C83.8556 61.12 82.6623 60.82 81.5823 60.22C80.5023 59.6067 79.6423 58.76 79.0023 57.68C78.3756 56.6 78.0623 55.38 78.0623 54.02ZM104.391 55.22C104.391 55.6333 104.364 56.0067 104.311 56.34H95.891C95.9577 57.22 96.2843 57.9267 96.871 58.46C97.4577 58.9933 98.1777 59.26 99.031 59.26C100.258 59.26 101.124 58.7467 101.631 57.72H104.091C103.758 58.7333 103.151 59.5667 102.271 60.22C101.404 60.86 100.324 61.18 99.031 61.18C97.9777 61.18 97.031 60.9467 96.191 60.48C95.3643 60 94.711 59.3333 94.231 58.48C93.7643 57.6133 93.531 56.6133 93.531 55.48C93.531 54.3467 93.7577 53.3533 94.211 52.5C94.6777 51.6333 95.3243 50.9667 96.151 50.5C96.991 50.0333 97.951 49.8 99.031 49.8C100.071 49.8 100.998 50.0267 101.811 50.48C102.624 50.9333 103.258 51.5733 103.711 52.4C104.164 53.2133 104.391 54.1533 104.391 55.22ZM102.011 54.5C101.998 53.66 101.698 52.9867 101.111 52.48C100.524 51.9733 99.7977 51.72 98.931 51.72C98.1443 51.72 97.471 51.9733 96.911 52.48C96.351 52.9733 96.0177 53.6467 95.911 54.5H102.011ZM112.195 49.8C113.061 49.8 113.835 49.98 114.515 50.34C115.208 50.7 115.748 51.2333 116.135 51.94C116.521 52.6467 116.715 53.5 116.715 54.5V61H114.455V54.84C114.455 53.8533 114.208 53.1 113.715 52.58C113.221 52.0467 112.548 51.78 111.695 51.78C110.841 51.78 110.161 52.0467 109.655 52.58C109.161 53.1 108.915 53.8533 108.915 54.84V61H106.635V49.98H108.915V51.24C109.288 50.7867 109.761 50.4333 110.335 50.18C110.921 49.9267 111.541 49.8 112.195 49.8ZM118.863 55.44C118.863 54.3333 119.09 53.3533 119.543 52.5C120.01 51.6467 120.636 50.9867 121.423 50.52C122.223 50.04 123.103 49.8 124.063 49.8C124.93 49.8 125.683 49.9733 126.323 50.32C126.976 50.6533 127.496 51.0733 127.883 51.58V49.98H130.183V61H127.883V59.36C127.496 59.88 126.97 60.3133 126.303 60.66C125.636 61.0067 124.876 61.18 124.023 61.18C123.076 61.18 122.21 60.94 121.423 60.46C120.636 59.9667 120.01 59.2867 119.543 58.42C119.09 57.54 118.863 56.5467 118.863 55.44ZM127.883 55.48C127.883 54.72 127.723 54.06 127.403 53.5C127.096 52.94 126.69 52.5133 126.183 52.22C125.676 51.9267 125.13 51.78 124.543 51.78C123.956 51.78 123.41 51.9267 122.903 52.22C122.396 52.5 121.983 52.92 121.663 53.48C121.356 54.0267 121.203 54.68 121.203 55.44C121.203 56.2 121.356 56.8667 121.663 57.44C121.983 58.0133 122.396 58.4533 122.903 58.76C123.423 59.0533 123.97 59.2 124.543 59.2C125.13 59.2 125.676 59.0533 126.183 58.76C126.69 58.4667 127.096 58.04 127.403 57.48C127.723 56.9067 127.883 56.24 127.883 55.48Z" fill="#212121"/>
<path d="M449.267 49.8C449.12 49.1867 448.853 48.7267 448.467 48.42C448.08 48.1133 447.54 47.96 446.847 47.96C445.793 47.96 445.007 48.3667 444.487 49.18C443.967 49.98 443.693 51.3133 443.667 53.18C444.013 52.5933 444.52 52.14 445.187 51.82C445.853 51.5 446.573 51.34 447.347 51.34C448.227 51.34 449 51.5333 449.667 51.92C450.347 52.2933 450.873 52.84 451.247 53.56C451.633 54.28 451.827 55.14 451.827 56.14C451.827 57.0733 451.64 57.9067 451.267 58.64C450.907 59.3733 450.367 59.9533 449.647 60.38C448.927 60.7933 448.06 61 447.047 61C445.673 61 444.593 60.7 443.807 60.1C443.033 59.4867 442.487 58.6267 442.167 57.52C441.86 56.4133 441.707 55.0333 441.707 53.38C441.707 48.5 443.427 46.06 446.867 46.06C448.2 46.06 449.247 46.42 450.007 47.14C450.78 47.86 451.233 48.7467 451.367 49.8H449.267ZM446.847 53.26C446.033 53.26 445.34 53.5067 444.767 54C444.207 54.48 443.927 55.18 443.927 56.1C443.927 57.02 444.187 57.7533 444.707 58.3C445.24 58.8333 445.98 59.1 446.927 59.1C447.767 59.1 448.427 58.84 448.907 58.32C449.4 57.8 449.647 57.1067 449.647 56.24C449.647 55.3333 449.407 54.6133 448.927 54.08C448.46 53.5333 447.767 53.26 446.847 53.26ZM458.994 55.44C458.994 54.3333 459.221 53.3533 459.674 52.5C460.141 51.6467 460.767 50.9867 461.554 50.52C462.354 50.04 463.241 49.8 464.214 49.8C464.934 49.8 465.641 49.96 466.334 50.28C467.041 50.5867 467.601 51 468.014 51.52V46.2H470.314V61H468.014V59.34C467.641 59.8733 467.121 60.3133 466.454 60.66C465.801 61.0067 465.047 61.18 464.194 61.18C463.234 61.18 462.354 60.94 461.554 60.46C460.767 59.9667 460.141 59.2867 459.674 58.42C459.221 57.54 458.994 56.5467 458.994 55.44ZM468.014 55.48C468.014 54.72 467.854 54.06 467.534 53.5C467.227 52.94 466.821 52.5133 466.314 52.22C465.807 51.9267 465.261 51.78 464.674 51.78C464.087 51.78 463.541 51.9267 463.034 52.22C462.527 52.5 462.114 52.92 461.794 53.48C461.487 54.0267 461.334 54.68 461.334 55.44C461.334 56.2 461.487 56.8667 461.794 57.44C462.114 58.0133 462.527 58.4533 463.034 58.76C463.554 59.0533 464.101 59.2 464.674 59.2C465.261 59.2 465.807 59.0533 466.314 58.76C466.821 58.4667 467.227 58.04 467.534 57.48C467.854 56.9067 468.014 56.24 468.014 55.48ZM478.869 49.8C479.735 49.8 480.509 49.98 481.189 50.34C481.882 50.7 482.422 51.2333 482.809 51.94C483.195 52.6467 483.389 53.5 483.389 54.5V61H481.129V54.84C481.129 53.8533 480.882 53.1 480.389 52.58C479.895 52.0467 479.222 51.78 478.369 51.78C477.515 51.78 476.835 52.0467 476.329 52.58C475.835 53.1 475.589 53.8533 475.589 54.84V61H473.309V49.98H475.589V51.24C475.962 50.7867 476.435 50.4333 477.009 50.18C477.595 49.9267 478.215 49.8 478.869 49.8ZM487.457 48.52C487.044 48.52 486.697 48.38 486.417 48.1C486.137 47.82 485.997 47.4733 485.997 47.06C485.997 46.6467 486.137 46.3 486.417 46.02C486.697 45.74 487.044 45.6 487.457 45.6C487.857 45.6 488.197 45.74 488.477 46.02C488.757 46.3 488.897 46.6467 488.897 47.06C488.897 47.4733 488.757 47.82 488.477 48.1C488.197 48.38 487.857 48.52 487.457 48.52ZM488.577 49.98V61H486.297V49.98H488.577ZM500.766 61.18C499.899 61.18 499.119 61.0267 498.426 60.72C497.746 60.4 497.206 59.9733 496.806 59.44C496.406 58.8933 496.192 58.2867 496.166 57.62H498.526C498.566 58.0867 498.786 58.48 499.186 58.8C499.599 59.1067 500.112 59.26 500.726 59.26C501.366 59.26 501.859 59.14 502.206 58.9C502.566 58.6467 502.746 58.3267 502.746 57.94C502.746 57.5267 502.546 57.22 502.146 57.02C501.759 56.82 501.139 56.6 500.286 56.36C499.459 56.1333 498.786 55.9133 498.266 55.7C497.746 55.4867 497.292 55.16 496.906 54.72C496.532 54.28 496.346 53.7 496.346 52.98C496.346 52.3933 496.519 51.86 496.866 51.38C497.212 50.8867 497.706 50.5 498.346 50.22C498.999 49.94 499.746 49.8 500.586 49.8C501.839 49.8 502.846 50.12 503.606 50.76C504.379 51.3867 504.792 52.2467 504.846 53.34H502.566C502.526 52.8467 502.326 52.4533 501.966 52.16C501.606 51.8667 501.119 51.72 500.506 51.72C499.906 51.72 499.446 51.8333 499.126 52.06C498.806 52.2867 498.646 52.5867 498.646 52.96C498.646 53.2533 498.752 53.5 498.966 53.7C499.179 53.9 499.439 54.06 499.746 54.18C500.052 54.2867 500.506 54.4267 501.106 54.6C501.906 54.8133 502.559 55.0333 503.066 55.26C503.586 55.4733 504.032 55.7933 504.406 56.22C504.779 56.6467 504.972 57.2133 504.986 57.92C504.986 58.5467 504.812 59.1067 504.466 59.6C504.119 60.0933 503.626 60.48 502.986 60.76C502.359 61.04 501.619 61.18 500.766 61.18ZM511.809 55.5L516.889 61H513.809L509.729 56.26V61H507.449V46.2H509.729V54.8L513.729 49.98H516.889L511.809 55.5ZM519.683 48.52C519.27 48.52 518.923 48.38 518.643 48.1C518.363 47.82 518.223 47.4733 518.223 47.06C518.223 46.6467 518.363 46.3 518.643 46.02C518.923 45.74 519.27 45.6 519.683 45.6C520.083 45.6 520.423 45.74 520.703 46.02C520.983 46.3 521.123 46.6467 521.123 47.06C521.123 47.4733 520.983 47.82 520.703 48.1C520.423 48.38 520.083 48.52 519.683 48.52ZM520.803 49.98V61H518.523V49.98H520.803ZM526.077 51.6C526.464 51.0933 526.99 50.6667 527.657 50.32C528.324 49.9733 529.077 49.8 529.917 49.8C530.877 49.8 531.75 50.04 532.537 50.52C533.337 50.9867 533.964 51.6467 534.417 52.5C534.87 53.3533 535.097 54.3333 535.097 55.44C535.097 56.5467 534.87 57.54 534.417 58.42C533.964 59.2867 533.337 59.9667 532.537 60.46C531.75 60.94 530.877 61.18 529.917 61.18C529.077 61.18 528.33 61.0133 527.677 60.68C527.024 60.3333 526.49 59.9067 526.077 59.4V66.24H523.797V49.98H526.077V51.6ZM532.777 55.44C532.777 54.68 532.617 54.0267 532.297 53.48C531.99 52.92 531.577 52.5 531.057 52.22C530.55 51.9267 530.004 51.78 529.417 51.78C528.844 51.78 528.297 51.9267 527.777 52.22C527.27 52.5133 526.857 52.94 526.537 53.5C526.23 54.06 526.077 54.72 526.077 55.48C526.077 56.24 526.23 56.9067 526.537 57.48C526.857 58.04 527.27 58.4667 527.777 58.76C528.297 59.0533 528.844 59.2 529.417 59.2C530.004 59.2 530.55 59.0533 531.057 58.76C531.577 58.4533 531.99 58.0133 532.297 57.44C532.617 56.8667 532.777 56.2 532.777 55.44ZM536.592 55.44C536.592 54.3333 536.818 53.3533 537.272 52.5C537.738 51.6467 538.365 50.9867 539.152 50.52C539.952 50.04 540.832 49.8 541.792 49.8C542.658 49.8 543.412 49.9733 544.052 50.32C544.705 50.6533 545.225 51.0733 545.612 51.58V49.98H547.912V61H545.612V59.36C545.225 59.88 544.698 60.3133 544.032 60.66C543.365 61.0067 542.605 61.18 541.752 61.18C540.805 61.18 539.938 60.94 539.152 60.46C538.365 59.9667 537.738 59.2867 537.272 58.42C536.818 57.54 536.592 56.5467 536.592 55.44ZM545.612 55.48C545.612 54.72 545.452 54.06 545.132 53.5C544.825 52.94 544.418 52.5133 543.912 52.22C543.405 51.9267 542.858 51.78 542.272 51.78C541.685 51.78 541.138 51.9267 540.632 52.22C540.125 52.5 539.712 52.92 539.392 53.48C539.085 54.0267 538.932 54.68 538.932 55.44C538.932 56.2 539.085 56.8667 539.392 57.44C539.712 58.0133 540.125 58.4533 540.632 58.76C541.152 59.0533 541.698 59.2 542.272 59.2C542.858 59.2 543.405 59.0533 543.912 58.76C544.418 58.4667 544.825 58.04 545.132 57.48C545.452 56.9067 545.612 56.24 545.612 55.48ZM554.906 61.18C554.04 61.18 553.26 61.0267 552.566 60.72C551.886 60.4 551.346 59.9733 550.946 59.44C550.546 58.8933 550.333 58.2867 550.306 57.62H552.666C552.706 58.0867 552.926 58.48 553.326 58.8C553.74 59.1067 554.253 59.26 554.866 59.26C555.506 59.26 556 59.14 556.346 58.9C556.706 58.6467 556.886 58.3267 556.886 57.94C556.886 57.5267 556.686 57.22 556.286 57.02C555.9 56.82 555.28 56.6 554.426 56.36C553.6 56.1333 552.926 55.9133 552.406 55.7C551.886 55.4867 551.433 55.16 551.046 54.72C550.673 54.28 550.486 53.7 550.486 52.98C550.486 52.3933 550.66 51.86 551.006 51.38C551.353 50.8867 551.846 50.5 552.486 50.22C553.14 49.94 553.886 49.8 554.726 49.8C555.98 49.8 556.986 50.12 557.746 50.76C558.52 51.3867 558.933 52.2467 558.986 53.34H556.706C556.666 52.8467 556.466 52.4533 556.106 52.16C555.746 51.8667 555.26 51.72 554.646 51.72C554.046 51.72 553.586 51.8333 553.266 52.06C552.946 52.2867 552.786 52.5867 552.786 52.96C552.786 53.2533 552.893 53.5 553.106 53.7C553.32 53.9 553.58 54.06 553.886 54.18C554.193 54.2867 554.646 54.4267 555.246 54.6C556.046 54.8133 556.7 55.0333 557.206 55.26C557.726 55.4733 558.173 55.7933 558.546 56.22C558.92 56.6467 559.113 57.2133 559.126 57.92C559.126 58.5467 558.953 59.1067 558.606 59.6C558.26 60.0933 557.766 60.48 557.126 60.76C556.5 61.04 555.76 61.18 554.906 61.18ZM565.59 61.18C564.723 61.18 563.943 61.0267 563.25 60.72C562.57 60.4 562.03 59.9733 561.63 59.44C561.23 58.8933 561.017 58.2867 560.99 57.62H563.35C563.39 58.0867 563.61 58.48 564.01 58.8C564.423 59.1067 564.937 59.26 565.55 59.26C566.19 59.26 566.683 59.14 567.03 58.9C567.39 58.6467 567.57 58.3267 567.57 57.94C567.57 57.5267 567.37 57.22 566.97 57.02C566.583 56.82 565.963 56.6 565.11 56.36C564.283 56.1333 563.61 55.9133 563.09 55.7C562.57 55.4867 562.117 55.16 561.73 54.72C561.357 54.28 561.17 53.7 561.17 52.98C561.17 52.3933 561.343 51.86 561.69 51.38C562.037 50.8867 562.53 50.5 563.17 50.22C563.823 49.94 564.57 49.8 565.41 49.8C566.663 49.8 567.67 50.12 568.43 50.76C569.203 51.3867 569.617 52.2467 569.67 53.34H567.39C567.35 52.8467 567.15 52.4533 566.79 52.16C566.43 51.8667 565.943 51.72 565.33 51.72C564.73 51.72 564.27 51.8333 563.95 52.06C563.63 52.2867 563.47 52.5867 563.47 52.96C563.47 53.2533 563.577 53.5 563.79 53.7C564.003 53.9 564.263 54.06 564.57 54.18C564.877 54.2867 565.33 54.4267 565.93 54.6C566.73 54.8133 567.383 55.0333 567.89 55.26C568.41 55.4733 568.857 55.7933 569.23 56.22C569.603 56.6467 569.797 57.2133 569.81 57.92C569.81 58.5467 569.637 59.1067 569.29 59.6C568.943 60.0933 568.45 60.48 567.81 60.76C567.183 61.04 566.443 61.18 565.59 61.18Z" fill="#212121"/>
<path d="M658.887 48.18L653.327 61H651.027L656.647 48.42H649.247V46.48H658.887V48.18ZM671.114 61.18C670.074 61.18 669.134 60.9467 668.294 60.48C667.454 60 666.794 59.3333 666.314 58.48C665.834 57.6133 665.594 56.6133 665.594 55.48C665.594 54.36 665.841 53.3667 666.334 52.5C666.827 51.6333 667.501 50.9667 668.354 50.5C669.207 50.0333 670.161 49.8 671.214 49.8C672.267 49.8 673.221 50.0333 674.074 50.5C674.927 50.9667 675.601 51.6333 676.094 52.5C676.587 53.3667 676.834 54.36 676.834 55.48C676.834 56.6 676.581 57.5933 676.074 58.46C675.567 59.3267 674.874 60 673.994 60.48C673.127 60.9467 672.167 61.18 671.114 61.18ZM671.114 59.2C671.701 59.2 672.247 59.06 672.754 58.78C673.274 58.5 673.694 58.08 674.014 57.52C674.334 56.96 674.494 56.28 674.494 55.48C674.494 54.68 674.341 54.0067 674.034 53.46C673.727 52.9 673.321 52.48 672.814 52.2C672.307 51.92 671.761 51.78 671.174 51.78C670.587 51.78 670.041 51.92 669.534 52.2C669.041 52.48 668.647 52.9 668.354 53.46C668.061 54.0067 667.914 54.68 667.914 55.48C667.914 56.6667 668.214 57.5867 668.814 58.24C669.427 58.88 670.194 59.2 671.114 59.2ZM681.368 51.62C681.755 51.0867 682.281 50.6533 682.948 50.32C683.628 49.9733 684.381 49.8 685.208 49.8C686.181 49.8 687.061 50.0333 687.848 50.5C688.635 50.9667 689.255 51.6333 689.708 52.5C690.161 53.3533 690.388 54.3333 690.388 55.44C690.388 56.5467 690.161 57.54 689.708 58.42C689.255 59.2867 688.628 59.9667 687.828 60.46C687.041 60.94 686.168 61.18 685.208 61.18C684.355 61.18 683.595 61.0133 682.928 60.68C682.275 60.3467 681.755 59.92 681.368 59.4V61H679.088V46.2H681.368V51.62ZM688.068 55.44C688.068 54.68 687.908 54.0267 687.588 53.48C687.281 52.92 686.868 52.5 686.348 52.22C685.841 51.9267 685.295 51.78 684.708 51.78C684.135 51.78 683.588 51.9267 683.068 52.22C682.561 52.5133 682.148 52.94 681.828 53.5C681.521 54.06 681.368 54.72 681.368 55.48C681.368 56.24 681.521 56.9067 681.828 57.48C682.148 58.04 682.561 58.4667 683.068 58.76C683.588 59.0533 684.135 59.2 684.708 59.2C685.295 59.2 685.841 59.0533 686.348 58.76C686.868 58.4533 687.281 58.0133 687.588 57.44C687.908 56.8667 688.068 56.2 688.068 55.44ZM693.803 48.52C693.389 48.52 693.043 48.38 692.763 48.1C692.483 47.82 692.343 47.4733 692.343 47.06C692.343 46.6467 692.483 46.3 692.763 46.02C693.043 45.74 693.389 45.6 693.803 45.6C694.203 45.6 694.543 45.74 694.823 46.02C695.103 46.3 695.243 46.6467 695.243 47.06C695.243 47.4733 695.103 47.82 694.823 48.1C694.543 48.38 694.203 48.52 693.803 48.52ZM694.923 49.98V61H692.643V49.98H694.923ZM697.156 55.44C697.156 54.3333 697.383 53.3533 697.836 52.5C698.303 51.6467 698.929 50.9867 699.716 50.52C700.516 50.04 701.396 49.8 702.356 49.8C703.223 49.8 703.976 49.9733 704.616 50.32C705.269 50.6533 705.789 51.0733 706.176 51.58V49.98H708.476V61H706.176V59.36C705.789 59.88 705.263 60.3133 704.596 60.66C703.929 61.0067 703.169 61.18 702.316 61.18C701.369 61.18 700.503 60.94 699.716 60.46C698.929 59.9667 698.303 59.2867 697.836 58.42C697.383 57.54 697.156 56.5467 697.156 55.44ZM706.176 55.48C706.176 54.72 706.016 54.06 705.696 53.5C705.389 52.94 704.983 52.5133 704.476 52.22C703.969 51.9267 703.423 51.78 702.836 51.78C702.249 51.78 701.703 51.9267 701.196 52.22C700.689 52.5 700.276 52.92 699.956 53.48C699.649 54.0267 699.496 54.68 699.496 55.44C699.496 56.2 699.649 56.8667 699.956 57.44C700.276 58.0133 700.689 58.4533 701.196 58.76C701.716 59.0533 702.263 59.2 702.836 59.2C703.423 59.2 703.969 59.0533 704.476 58.76C704.983 58.4667 705.389 58.04 705.696 57.48C706.016 56.9067 706.176 56.24 706.176 55.48ZM710.711 55.44C710.711 54.3333 710.937 53.3533 711.391 52.5C711.857 51.6467 712.484 50.9867 713.271 50.52C714.071 50.04 714.957 49.8 715.931 49.8C716.651 49.8 717.357 49.96 718.051 50.28C718.757 50.5867 719.317 51 719.731 51.52V46.2H722.031V61H719.731V59.34C719.357 59.8733 718.837 60.3133 718.171 60.66C717.517 61.0067 716.764 61.18 715.911 61.18C714.951 61.18 714.071 60.94 713.271 60.46C712.484 59.9667 711.857 59.2867 711.391 58.42C710.937 57.54 710.711 56.5467 710.711 55.44ZM719.731 55.48C719.731 54.72 719.571 54.06 719.251 53.5C718.944 52.94 718.537 52.5133 718.031 52.22C717.524 51.9267 716.977 51.78 716.391 51.78C715.804 51.78 715.257 51.9267 714.751 52.22C714.244 52.5 713.831 52.92 713.511 53.48C713.204 54.0267 713.051 54.68 713.051 55.44C713.051 56.2 713.204 56.8667 713.511 57.44C713.831 58.0133 714.244 58.4533 714.751 58.76C715.271 59.0533 715.817 59.2 716.391 59.2C716.977 59.2 717.524 59.0533 718.031 58.76C718.537 58.4667 718.944 58.04 719.251 57.48C719.571 56.9067 719.731 56.24 719.731 55.48ZM729.805 61.18C728.765 61.18 727.825 60.9467 726.985 60.48C726.145 60 725.485 59.3333 725.005 58.48C724.525 57.6133 724.285 56.6133 724.285 55.48C724.285 54.36 724.532 53.3667 725.025 52.5C725.519 51.6333 726.192 50.9667 727.045 50.5C727.899 50.0333 728.852 49.8 729.905 49.8C730.959 49.8 731.912 50.0333 732.765 50.5C733.619 50.9667 734.292 51.6333 734.785 52.5C735.279 53.3667 735.525 54.36 735.525 55.48C735.525 56.6 735.272 57.5933 734.765 58.46C734.259 59.3267 733.565 60 732.685 60.48C731.819 60.9467 730.859 61.18 729.805 61.18ZM729.805 59.2C730.392 59.2 730.939 59.06 731.445 58.78C731.965 58.5 732.385 58.08 732.705 57.52C733.025 56.96 733.185 56.28 733.185 55.48C733.185 54.68 733.032 54.0067 732.725 53.46C732.419 52.9 732.012 52.48 731.505 52.2C730.999 51.92 730.452 51.78 729.865 51.78C729.279 51.78 728.732 51.92 728.225 52.2C727.732 52.48 727.339 52.9 727.045 53.46C726.752 54.0067 726.605 54.68 726.605 55.48C726.605 56.6667 726.905 57.5867 727.505 58.24C728.119 58.88 728.885 59.2 729.805 59.2ZM742.139 55.5L747.219 61H744.139L740.059 56.26V61H737.779V46.2H740.059V54.8L744.059 49.98H747.219L742.139 55.5ZM753.634 61.18C752.594 61.18 751.654 60.9467 750.814 60.48C749.974 60 749.314 59.3333 748.834 58.48C748.354 57.6133 748.114 56.6133 748.114 55.48C748.114 54.36 748.36 53.3667 748.854 52.5C749.347 51.6333 750.02 50.9667 750.874 50.5C751.727 50.0333 752.68 49.8 753.734 49.8C754.787 49.8 755.74 50.0333 756.594 50.5C757.447 50.9667 758.12 51.6333 758.614 52.5C759.107 53.3667 759.354 54.36 759.354 55.48C759.354 56.6 759.1 57.5933 758.594 58.46C758.087 59.3267 757.394 60 756.514 60.48C755.647 60.9467 754.687 61.18 753.634 61.18ZM753.634 59.2C754.22 59.2 754.767 59.06 755.274 58.78C755.794 58.5 756.214 58.08 756.534 57.52C756.854 56.96 757.014 56.28 757.014 55.48C757.014 54.68 756.86 54.0067 756.554 53.46C756.247 52.9 755.84 52.48 755.334 52.2C754.827 51.92 754.28 51.78 753.694 51.78C753.107 51.78 752.56 51.92 752.054 52.2C751.56 52.48 751.167 52.9 750.874 53.46C750.58 54.0067 750.434 54.68 750.434 55.48C750.434 56.6667 750.734 57.5867 751.334 58.24C751.947 58.88 752.714 59.2 753.634 59.2ZM763.887 46.2V61H761.607V46.2H763.887ZM766.121 55.44C766.121 54.3333 766.348 53.3533 766.801 52.5C767.268 51.6467 767.894 50.9867 768.681 50.52C769.481 50.04 770.361 49.8 771.321 49.8C772.188 49.8 772.941 49.9733 773.581 50.32C774.234 50.6533 774.754 51.0733 775.141 51.58V49.98H777.441V61H775.141V59.36C774.754 59.88 774.228 60.3133 773.561 60.66C772.894 61.0067 772.134 61.18 771.281 61.18C770.334 61.18 769.468 60.94 768.681 60.46C767.894 59.9667 767.268 59.2867 766.801 58.42C766.348 57.54 766.121 56.5467 766.121 55.44ZM775.141 55.48C775.141 54.72 774.981 54.06 774.661 53.5C774.354 52.94 773.948 52.5133 773.441 52.22C772.934 51.9267 772.388 51.78 771.801 51.78C771.214 51.78 770.668 51.9267 770.161 52.22C769.654 52.5 769.241 52.92 768.921 53.48C768.614 54.0267 768.461 54.68 768.461 55.44C768.461 56.2 768.614 56.8667 768.921 57.44C769.241 58.0133 769.654 58.4533 770.161 58.76C770.681 59.0533 771.228 59.2 771.801 59.2C772.388 59.2 772.934 59.0533 773.441 58.76C773.948 58.4667 774.354 58.04 774.661 57.48C774.981 56.9067 775.141 56.24 775.141 55.48ZM779.676 55.48C779.676 54.3467 779.902 53.3533 780.356 52.5C780.822 51.6333 781.462 50.9667 782.276 50.5C783.089 50.0333 784.022 49.8 785.076 49.8C786.409 49.8 787.509 50.12 788.376 50.76C789.256 51.3867 789.849 52.2867 790.156 53.46H787.696C787.496 52.9133 787.176 52.4867 786.736 52.18C786.296 51.8733 785.742 51.72 785.076 51.72C784.142 51.72 783.396 52.0533 782.836 52.72C782.289 53.3733 782.016 54.2933 782.016 55.48C782.016 56.6667 782.289 57.5933 782.836 58.26C783.396 58.9267 784.142 59.26 785.076 59.26C786.396 59.26 787.269 58.68 787.696 57.52H790.156C789.836 58.64 789.236 59.5333 788.356 60.2C787.476 60.8533 786.382 61.18 785.076 61.18C784.022 61.18 783.089 60.9467 782.276 60.48C781.462 60 780.822 59.3333 780.356 58.48C779.902 57.6133 779.676 56.6133 779.676 55.48ZM793.588 48.52C793.174 48.52 792.828 48.38 792.548 48.1C792.268 47.82 792.128 47.4733 792.128 47.06C792.128 46.6467 792.268 46.3 792.548 46.02C792.828 45.74 793.174 45.6 793.588 45.6C793.988 45.6 794.328 45.74 794.608 46.02C794.888 46.3 795.028 46.6467 795.028 47.06C795.028 47.4733 794.888 47.82 794.608 48.1C794.328 48.38 793.988 48.52 793.588 48.52ZM794.708 63.16C794.708 64.24 794.434 65.02 793.888 65.5C793.354 65.9933 792.574 66.24 791.548 66.24H790.368V64.32H791.148C791.614 64.32 791.941 64.2267 792.128 64.04C792.328 63.8667 792.428 63.5733 792.428 63.16V49.98H794.708V63.16ZM798.861 48.52C798.448 48.52 798.101 48.38 797.821 48.1C797.541 47.82 797.401 47.4733 797.401 47.06C797.401 46.6467 797.541 46.3 797.821 46.02C798.101 45.74 798.448 45.6 798.861 45.6C799.261 45.6 799.601 45.74 799.881 46.02C800.161 46.3 800.301 46.6467 800.301 47.06C800.301 47.4733 800.161 47.82 799.881 48.1C799.601 48.38 799.261 48.52 798.861 48.52ZM799.981 49.98V61H797.701V49.98H799.981ZM809.315 47.42L810.215 49.02L807.475 50.04L810.215 51.06L809.295 52.7L807.015 50.9L807.435 53.8H805.595L805.975 50.9L803.695 52.74L802.735 51.04L805.455 50.02L802.735 49.04L803.655 47.4L805.995 49.2L805.595 46.28H807.455L807.015 49.2L809.315 47.42Z" fill="#212121"/>
<path d="M887.448 48.18L881.888 61H879.588L885.208 48.42H877.808V46.48H887.448V48.18ZM898.895 61.18C898.028 61.18 897.248 61.0267 896.555 60.72C895.875 60.4 895.335 59.9733 894.935 59.44C894.535 58.8933 894.321 58.2867 894.295 57.62H896.655C896.695 58.0867 896.915 58.48 897.315 58.8C897.728 59.1067 898.241 59.26 898.855 59.26C899.495 59.26 899.988 59.14 900.335 58.9C900.695 58.6467 900.875 58.3267 900.875 57.94C900.875 57.5267 900.675 57.22 900.275 57.02C899.888 56.82 899.268 56.6 898.415 56.36C897.588 56.1333 896.915 55.9133 896.395 55.7C895.875 55.4867 895.421 55.16 895.035 54.72C894.661 54.28 894.475 53.7 894.475 52.98C894.475 52.3933 894.648 51.86 894.995 51.38C895.341 50.8867 895.835 50.5 896.475 50.22C897.128 49.94 897.875 49.8 898.715 49.8C899.968 49.8 900.975 50.12 901.735 50.76C902.508 51.3867 902.921 52.2467 902.975 53.34H900.695C900.655 52.8467 900.455 52.4533 900.095 52.16C899.735 51.8667 899.248 51.72 898.635 51.72C898.035 51.72 897.575 51.8333 897.255 52.06C896.935 52.2867 896.775 52.5867 896.775 52.96C896.775 53.2533 896.881 53.5 897.095 53.7C897.308 53.9 897.568 54.06 897.875 54.18C898.181 54.2867 898.635 54.4267 899.235 54.6C900.035 54.8133 900.688 55.0333 901.195 55.26C901.715 55.4733 902.161 55.7933 902.535 56.22C902.908 56.6467 903.101 57.2133 903.115 57.92C903.115 58.5467 902.941 59.1067 902.595 59.6C902.248 60.0933 901.755 60.48 901.115 60.76C900.488 61.04 899.748 61.18 898.895 61.18ZM900.775 46.84L896.355 49.02V47.34L900.775 44.9V46.84ZM911.138 49.8C912.005 49.8 912.778 49.98 913.458 50.34C914.151 50.7 914.691 51.2333 915.078 51.94C915.465 52.6467 915.658 53.5 915.658 54.5V61H913.398V54.84C913.398 53.8533 913.151 53.1 912.658 52.58C912.165 52.0467 911.491 51.78 910.638 51.78C909.785 51.78 909.105 52.0467 908.598 52.58C908.105 53.1 907.858 53.8533 907.858 54.84V61H905.578V49.98H907.858V51.24C908.231 50.7867 908.705 50.4333 909.278 50.18C909.865 49.9267 910.485 49.8 911.138 49.8ZM919.726 48.52C919.313 48.52 918.966 48.38 918.686 48.1C918.406 47.82 918.266 47.4733 918.266 47.06C918.266 46.6467 918.406 46.3 918.686 46.02C918.966 45.74 919.313 45.6 919.726 45.6C920.126 45.6 920.466 45.74 920.746 46.02C921.026 46.3 921.166 46.6467 921.166 47.06C921.166 47.4733 921.026 47.82 920.746 48.1C920.466 48.38 920.126 48.52 919.726 48.52ZM920.846 49.98V61H918.566V49.98H920.846ZM923.08 55.44C923.08 54.3333 923.307 53.3533 923.76 52.5C924.227 51.6467 924.853 50.9867 925.64 50.52C926.44 50.04 927.32 49.8 928.28 49.8C929.147 49.8 929.9 49.9733 930.54 50.32C931.193 50.6533 931.713 51.0733 932.1 51.58V49.98H934.4V61H932.1V59.36C931.713 59.88 931.187 60.3133 930.52 60.66C929.853 61.0067 929.093 61.18 928.24 61.18C927.293 61.18 926.427 60.94 925.64 60.46C924.853 59.9667 924.227 59.2867 923.76 58.42C923.307 57.54 923.08 56.5467 923.08 55.44ZM932.1 55.48C932.1 54.72 931.94 54.06 931.62 53.5C931.313 52.94 930.907 52.5133 930.4 52.22C929.893 51.9267 929.347 51.78 928.76 51.78C928.173 51.78 927.627 51.9267 927.12 52.22C926.613 52.5 926.2 52.92 925.88 53.48C925.573 54.0267 925.42 54.68 925.42 55.44C925.42 56.2 925.573 56.8667 925.88 57.44C926.2 58.0133 926.613 58.4533 927.12 58.76C927.64 59.0533 928.187 59.2 928.76 59.2C929.347 59.2 929.893 59.0533 930.4 58.76C930.907 58.4667 931.313 58.04 931.62 57.48C931.94 56.9067 932.1 56.24 932.1 55.48ZM936.635 55.44C936.635 54.3333 936.861 53.3533 937.315 52.5C937.781 51.6467 938.408 50.9867 939.195 50.52C939.995 50.04 940.881 49.8 941.855 49.8C942.575 49.8 943.281 49.96 943.975 50.28C944.681 50.5867 945.241 51 945.655 51.52V46.2H947.955V61H945.655V59.34C945.281 59.8733 944.761 60.3133 944.095 60.66C943.441 61.0067 942.688 61.18 941.835 61.18C940.875 61.18 939.995 60.94 939.195 60.46C938.408 59.9667 937.781 59.2867 937.315 58.42C936.861 57.54 936.635 56.5467 936.635 55.44ZM945.655 55.48C945.655 54.72 945.495 54.06 945.175 53.5C944.868 52.94 944.461 52.5133 943.955 52.22C943.448 51.9267 942.901 51.78 942.315 51.78C941.728 51.78 941.181 51.9267 940.675 52.22C940.168 52.5 939.755 52.92 939.435 53.48C939.128 54.0267 938.975 54.68 938.975 55.44C938.975 56.2 939.128 56.8667 939.435 57.44C939.755 58.0133 940.168 58.4533 940.675 58.76C941.195 59.0533 941.741 59.2 942.315 59.2C942.901 59.2 943.448 59.0533 943.955 58.76C944.461 58.4667 944.868 58.04 945.175 57.48C945.495 56.9067 945.655 56.24 945.655 55.48ZM950.189 55.44C950.189 54.3333 950.416 53.3533 950.869 52.5C951.336 51.6467 951.963 50.9867 952.749 50.52C953.549 50.04 954.429 49.8 955.389 49.8C956.256 49.8 957.009 49.9733 957.649 50.32C958.303 50.6533 958.823 51.0733 959.209 51.58V49.98H961.509V61H959.209V59.36C958.823 59.88 958.296 60.3133 957.629 60.66C956.963 61.0067 956.203 61.18 955.349 61.18C954.403 61.18 953.536 60.94 952.749 60.46C951.963 59.9667 951.336 59.2867 950.869 58.42C950.416 57.54 950.189 56.5467 950.189 55.44ZM959.209 55.48C959.209 54.72 959.049 54.06 958.729 53.5C958.423 52.94 958.016 52.5133 957.509 52.22C957.003 51.9267 956.456 51.78 955.869 51.78C955.283 51.78 954.736 51.9267 954.229 52.22C953.723 52.5 953.309 52.92 952.989 53.48C952.683 54.0267 952.529 54.68 952.529 55.44C952.529 56.2 952.683 56.8667 952.989 57.44C953.309 58.0133 953.723 58.4533 954.229 58.76C954.749 59.0533 955.296 59.2 955.869 59.2C956.456 59.2 957.003 59.0533 957.509 58.76C958.016 58.4667 958.423 58.04 958.729 57.48C959.049 56.9067 959.209 56.24 959.209 55.48ZM970.064 49.8C970.931 49.8 971.704 49.98 972.384 50.34C973.077 50.7 973.617 51.2333 974.004 51.94C974.391 52.6467 974.584 53.5 974.584 54.5V61H972.324V54.84C972.324 53.8533 972.077 53.1 971.584 52.58C971.091 52.0467 970.417 51.78 969.564 51.78C968.711 51.78 968.031 52.0467 967.524 52.58C967.031 53.1 966.784 53.8533 966.784 54.84V61H964.504V49.98H966.784V51.24C967.157 50.7867 967.631 50.4333 968.204 50.18C968.791 49.9267 969.411 49.8 970.064 49.8ZM971.764 47.02L967.344 49.2V47.52L971.764 45.08V47.02Z" fill="#212121"/>
<circle cx="723.5" cy="147.5" r="7.5" fill="#212121"/>
<circle cx="925.5" cy="147.5" r="7.5" fill="#212121"/>
<circle cx="306.5" cy="147.5" r="7.5" fill="#212121"/>
<circle cx="306.5" cy="241.5" r="7.5" fill="#212121"/>
<circle cx="504.5" cy="241.5" r="7.5" fill="#212121"/>
<circle cx="723.5" cy="241.5" r="7.5" fill="#212121"/>
<circle cx="306.5" cy="337.5" r="7.5" fill="#212121"/>
<circle cx="504.5" cy="337.5" r="7.5" fill="#212121"/>
<circle cx="504.5" cy="147.5" r="7.5" fill="#212121"/>
</svg>
