<svg width="980" height="416" viewBox="0 0 980 416" fill="none" xmlns="http://www.w3.org/2000/svg">
<rect width="980" height="416" rx="6" fill="#F3F4F6"/>
<line x1="204" y1="401" x2="204" y2="15" stroke="#404040" stroke-width="2"/>
<line x1="394" y1="401" x2="394" y2="15" stroke="#404040" stroke-width="2"/>
<line x1="584" y1="401" x2="584" y2="15" stroke="#404040" stroke-width="2"/>
<line x1="774" y1="401" x2="774" y2="15" stroke="#404040" stroke-width="2"/>
<line x1="15" y1="110" x2="965" y2="110" stroke="#404040" stroke-width="2"/>
<line x1="15" y1="206" x2="965" y2="206" stroke="#404040" stroke-width="2"/>
<line x1="15" y1="302" x2="965" y2="302" stroke="#404040" stroke-width="2"/>
<path d="M253.665 57.18L248.105 70H245.805L251.425 57.42H244.025V55.48H253.665V57.18ZM266.671 58.8C267.538 58.8 268.311 58.98 268.991 59.34C269.685 59.7 270.225 60.2333 270.611 60.94C270.998 61.6467 271.191 62.5 271.191 63.5V70H268.931V63.84C268.931 62.8533 268.685 62.1 268.191 61.58C267.698 61.0467 267.025 60.78 266.171 60.78C265.318 60.78 264.638 61.0467 264.131 61.58C263.638 62.1 263.391 62.8533 263.391 63.84V70H261.111V58.98H263.391V60.24C263.765 59.7867 264.238 59.4333 264.811 59.18C265.398 58.9267 266.018 58.8 266.671 58.8ZM278.88 70.18C277.84 70.18 276.9 69.9467 276.06 69.48C275.22 69 274.56 68.3333 274.08 67.48C273.6 66.6133 273.36 65.6133 273.36 64.48C273.36 63.36 273.606 62.3667 274.1 61.5C274.593 60.6333 275.266 59.9667 276.12 59.5C276.973 59.0333 277.926 58.8 278.98 58.8C280.033 58.8 280.986 59.0333 281.84 59.5C282.693 59.9667 283.366 60.6333 283.86 61.5C284.353 62.3667 284.6 63.36 284.6 64.48C284.6 65.6 284.346 66.5933 283.84 67.46C283.333 68.3267 282.64 69 281.76 69.48C280.893 69.9467 279.933 70.18 278.88 70.18ZM278.88 68.2C279.466 68.2 280.013 68.06 280.52 67.78C281.04 67.5 281.46 67.08 281.78 66.52C282.1 65.96 282.26 65.28 282.26 64.48C282.26 63.68 282.106 63.0067 281.8 62.46C281.493 61.9 281.086 61.48 280.58 61.2C280.073 60.92 279.526 60.78 278.94 60.78C278.353 60.78 277.806 60.92 277.3 61.2C276.806 61.48 276.413 61.9 276.12 62.46C275.826 63.0067 275.68 63.68 275.68 64.48C275.68 65.6667 275.98 66.5867 276.58 67.24C277.193 67.88 277.96 68.2 278.88 68.2ZM286.094 64.48C286.094 63.3467 286.32 62.3533 286.774 61.5C287.24 60.6333 287.88 59.9667 288.694 59.5C289.507 59.0333 290.44 58.8 291.494 58.8C292.827 58.8 293.927 59.12 294.794 59.76C295.674 60.3867 296.267 61.2867 296.574 62.46H294.114C293.914 61.9133 293.594 61.4867 293.154 61.18C292.714 60.8733 292.16 60.72 291.494 60.72C290.56 60.72 289.814 61.0533 289.254 61.72C288.707 62.3733 288.434 63.2933 288.434 64.48C288.434 65.6667 288.707 66.5933 289.254 67.26C289.814 67.9267 290.56 68.26 291.494 68.26C292.814 68.26 293.687 67.68 294.114 66.52H296.574C296.254 67.64 295.654 68.5333 294.774 69.2C293.894 69.8533 292.8 70.18 291.494 70.18C290.44 70.18 289.507 69.9467 288.694 69.48C287.88 69 287.24 68.3333 286.774 67.48C286.32 66.6133 286.094 65.6133 286.094 64.48ZM301.126 55.2V70H298.846V55.2H301.126ZM314.219 64.22C314.219 64.6333 314.192 65.0067 314.139 65.34H305.719C305.786 66.22 306.112 66.9267 306.699 67.46C307.286 67.9933 308.006 68.26 308.859 68.26C310.086 68.26 310.952 67.7467 311.459 66.72H313.919C313.586 67.7333 312.979 68.5667 312.099 69.22C311.232 69.86 310.152 70.18 308.859 70.18C307.806 70.18 306.859 69.9467 306.019 69.48C305.192 69 304.539 68.3333 304.059 67.48C303.592 66.6133 303.359 65.6133 303.359 64.48C303.359 63.3467 303.586 62.3533 304.039 61.5C304.506 60.6333 305.152 59.9667 305.979 59.5C306.819 59.0333 307.779 58.8 308.859 58.8C309.899 58.8 310.826 59.0267 311.639 59.48C312.452 59.9333 313.086 60.5733 313.539 61.4C313.992 62.2133 314.219 63.1533 314.219 64.22ZM311.839 63.5C311.826 62.66 311.526 61.9867 310.939 61.48C310.352 60.9733 309.626 60.72 308.759 60.72C307.972 60.72 307.299 60.9733 306.739 61.48C306.179 61.9733 305.846 62.6467 305.739 63.5H311.839ZM320.903 58.8C321.756 58.8 322.51 58.9733 323.163 59.32C323.83 59.6533 324.35 60.0733 324.723 60.58V58.98H327.023V70.18C327.023 71.1933 326.81 72.0933 326.383 72.88C325.956 73.68 325.336 74.3067 324.523 74.76C323.723 75.2133 322.763 75.44 321.643 75.44C320.15 75.44 318.91 75.0867 317.923 74.38C316.936 73.6867 316.376 72.74 316.243 71.54H318.503C318.676 72.1133 319.043 72.5733 319.603 72.92C320.176 73.28 320.856 73.46 321.643 73.46C322.563 73.46 323.303 73.18 323.863 72.62C324.436 72.06 324.723 71.2467 324.723 70.18V68.34C324.336 68.86 323.81 69.3 323.143 69.66C322.49 70.0067 321.743 70.18 320.903 70.18C319.943 70.18 319.063 69.94 318.263 69.46C317.476 68.9667 316.85 68.2867 316.383 67.42C315.93 66.54 315.703 65.5467 315.703 64.44C315.703 63.3333 315.93 62.3533 316.383 61.5C316.85 60.6467 317.476 59.9867 318.263 59.52C319.063 59.04 319.943 58.8 320.903 58.8ZM324.723 64.48C324.723 63.72 324.563 63.06 324.243 62.5C323.936 61.94 323.53 61.5133 323.023 61.22C322.516 60.9267 321.97 60.78 321.383 60.78C320.796 60.78 320.25 60.9267 319.743 61.22C319.236 61.5 318.823 61.92 318.503 62.48C318.196 63.0267 318.043 63.68 318.043 64.44C318.043 65.2 318.196 65.8667 318.503 66.44C318.823 67.0133 319.236 67.4533 319.743 67.76C320.263 68.0533 320.81 68.2 321.383 68.2C321.97 68.2 322.516 68.0533 323.023 67.76C323.53 67.4667 323.936 67.04 324.243 66.48C324.563 65.9067 324.723 65.24 324.723 64.48ZM334.798 70.18C333.758 70.18 332.818 69.9467 331.978 69.48C331.138 69 330.478 68.3333 329.998 67.48C329.518 66.6133 329.278 65.6133 329.278 64.48C329.278 63.36 329.524 62.3667 330.018 61.5C330.511 60.6333 331.184 59.9667 332.038 59.5C332.891 59.0333 333.844 58.8 334.898 58.8C335.951 58.8 336.904 59.0333 337.758 59.5C338.611 59.9667 339.284 60.6333 339.778 61.5C340.271 62.3667 340.518 63.36 340.518 64.48C340.518 65.6 340.264 66.5933 339.758 67.46C339.251 68.3267 338.558 69 337.678 69.48C336.811 69.9467 335.851 70.18 334.798 70.18ZM334.798 68.2C335.384 68.2 335.931 68.06 336.438 67.78C336.958 67.5 337.378 67.08 337.698 66.52C338.018 65.96 338.178 65.28 338.178 64.48C338.178 63.68 338.024 63.0067 337.718 62.46C337.411 61.9 337.004 61.48 336.498 61.2C335.991 60.92 335.444 60.78 334.858 60.78C334.271 60.78 333.724 60.92 333.218 61.2C332.724 61.48 332.331 61.9 332.038 62.46C331.744 63.0067 331.598 63.68 331.598 64.48C331.598 65.6667 331.898 66.5867 332.498 67.24C333.111 67.88 333.878 68.2 334.798 68.2ZM336.958 55.84L332.538 58.02V56.34L336.958 53.9V55.84ZM357.571 58.98L354.151 70H351.751L349.531 61.86L347.311 70H344.911L341.471 58.98H343.791L346.091 67.84L348.431 58.98H350.811L353.051 67.8L355.331 58.98H357.571Z" fill="#212121"/>
<path d="M83.0623 63.02C83.0623 61.66 83.3756 60.44 84.0023 59.36C84.6423 58.28 85.5023 57.44 86.5823 56.84C87.6756 56.2267 88.8689 55.92 90.1623 55.92C91.6423 55.92 92.9556 56.2867 94.1023 57.02C95.2623 57.74 96.1023 58.7667 96.6223 60.1H93.8823C93.5223 59.3667 93.0223 58.82 92.3823 58.46C91.7423 58.1 91.0023 57.92 90.1623 57.92C89.2423 57.92 88.4223 58.1267 87.7023 58.54C86.9823 58.9533 86.4156 59.5467 86.0023 60.32C85.6023 61.0933 85.4023 61.9933 85.4023 63.02C85.4023 64.0467 85.6023 64.9467 86.0023 65.72C86.4156 66.4933 86.9823 67.0933 87.7023 67.52C88.4223 67.9333 89.2423 68.14 90.1623 68.14C91.0023 68.14 91.7423 67.96 92.3823 67.6C93.0223 67.24 93.5223 66.6933 93.8823 65.96H96.6223C96.1023 67.2933 95.2623 68.32 94.1023 69.04C92.9556 69.76 91.6423 70.12 90.1623 70.12C88.8556 70.12 87.6623 69.82 86.5823 69.22C85.5023 68.6067 84.6423 67.76 84.0023 66.68C83.3756 65.6 83.0623 64.38 83.0623 63.02ZM109.391 64.22C109.391 64.6333 109.364 65.0067 109.311 65.34H100.891C100.958 66.22 101.284 66.9267 101.871 67.46C102.458 67.9933 103.178 68.26 104.031 68.26C105.258 68.26 106.124 67.7467 106.631 66.72H109.091C108.758 67.7333 108.151 68.5667 107.271 69.22C106.404 69.86 105.324 70.18 104.031 70.18C102.978 70.18 102.031 69.9467 101.191 69.48C100.364 69 99.711 68.3333 99.231 67.48C98.7643 66.6133 98.531 65.6133 98.531 64.48C98.531 63.3467 98.7577 62.3533 99.211 61.5C99.6777 60.6333 100.324 59.9667 101.151 59.5C101.991 59.0333 102.951 58.8 104.031 58.8C105.071 58.8 105.998 59.0267 106.811 59.48C107.624 59.9333 108.258 60.5733 108.711 61.4C109.164 62.2133 109.391 63.1533 109.391 64.22ZM107.011 63.5C106.998 62.66 106.698 61.9867 106.111 61.48C105.524 60.9733 104.798 60.72 103.931 60.72C103.144 60.72 102.471 60.9733 101.911 61.48C101.351 61.9733 101.018 62.6467 100.911 63.5H107.011ZM117.195 58.8C118.061 58.8 118.835 58.98 119.515 59.34C120.208 59.7 120.748 60.2333 121.135 60.94C121.521 61.6467 121.715 62.5 121.715 63.5V70H119.455V63.84C119.455 62.8533 119.208 62.1 118.715 61.58C118.221 61.0467 117.548 60.78 116.695 60.78C115.841 60.78 115.161 61.0467 114.655 61.58C114.161 62.1 113.915 62.8533 113.915 63.84V70H111.635V58.98H113.915V60.24C114.288 59.7867 114.761 59.4333 115.335 59.18C115.921 58.9267 116.541 58.8 117.195 58.8ZM123.863 64.44C123.863 63.3333 124.09 62.3533 124.543 61.5C125.01 60.6467 125.636 59.9867 126.423 59.52C127.223 59.04 128.103 58.8 129.063 58.8C129.93 58.8 130.683 58.9733 131.323 59.32C131.976 59.6533 132.496 60.0733 132.883 60.58V58.98H135.183V70H132.883V68.36C132.496 68.88 131.97 69.3133 131.303 69.66C130.636 70.0067 129.876 70.18 129.023 70.18C128.076 70.18 127.21 69.94 126.423 69.46C125.636 68.9667 125.01 68.2867 124.543 67.42C124.09 66.54 123.863 65.5467 123.863 64.44ZM132.883 64.48C132.883 63.72 132.723 63.06 132.403 62.5C132.096 61.94 131.69 61.5133 131.183 61.22C130.676 60.9267 130.13 60.78 129.543 60.78C128.956 60.78 128.41 60.9267 127.903 61.22C127.396 61.5 126.983 61.92 126.663 62.48C126.356 63.0267 126.203 63.68 126.203 64.44C126.203 65.2 126.356 65.8667 126.663 66.44C126.983 67.0133 127.396 67.4533 127.903 67.76C128.423 68.0533 128.97 68.2 129.543 68.2C130.13 68.2 130.676 68.0533 131.183 67.76C131.69 67.4667 132.096 67.04 132.403 66.48C132.723 65.9067 132.883 65.24 132.883 64.48Z" fill="#212121"/>
<path d="M91.3134 154.8C91.1668 154.187 90.9001 153.727 90.5134 153.42C90.1268 153.113 89.5868 152.96 88.8934 152.96C87.8401 152.96 87.0534 153.367 86.5334 154.18C86.0134 154.98 85.7401 156.313 85.7134 158.18C86.0601 157.593 86.5668 157.14 87.2334 156.82C87.9001 156.5 88.6201 156.34 89.3934 156.34C90.2734 156.34 91.0468 156.533 91.7134 156.92C92.3934 157.293 92.9201 157.84 93.2934 158.56C93.6801 159.28 93.8734 160.14 93.8734 161.14C93.8734 162.073 93.6868 162.907 93.3134 163.64C92.9534 164.373 92.4134 164.953 91.6934 165.38C90.9734 165.793 90.1068 166 89.0934 166C87.7201 166 86.6401 165.7 85.8534 165.1C85.0801 164.487 84.5334 163.627 84.2134 162.52C83.9068 161.413 83.7534 160.033 83.7534 158.38C83.7534 153.5 85.4734 151.06 88.9134 151.06C90.2468 151.06 91.2934 151.42 92.0534 152.14C92.8268 152.86 93.2801 153.747 93.4134 154.8H91.3134ZM88.8934 158.26C88.0801 158.26 87.3868 158.507 86.8134 159C86.2534 159.48 85.9734 160.18 85.9734 161.1C85.9734 162.02 86.2334 162.753 86.7534 163.3C87.2868 163.833 88.0268 164.1 88.9734 164.1C89.8134 164.1 90.4734 163.84 90.9534 163.32C91.4468 162.8 91.6934 162.107 91.6934 161.24C91.6934 160.333 91.4534 159.613 90.9734 159.08C90.5068 158.533 89.8134 158.26 88.8934 158.26ZM105.705 153.38H99.0055V157.36C99.2855 156.987 99.6988 156.673 100.245 156.42C100.805 156.167 101.399 156.04 102.025 156.04C103.145 156.04 104.052 156.28 104.745 156.76C105.452 157.24 105.952 157.847 106.245 158.58C106.552 159.313 106.705 160.087 106.705 160.9C106.705 161.887 106.512 162.767 106.125 163.54C105.752 164.3 105.185 164.9 104.425 165.34C103.679 165.78 102.759 166 101.665 166C100.212 166 99.0455 165.64 98.1655 164.92C97.2855 164.2 96.7588 163.247 96.5855 162.06H98.8055C98.9521 162.687 99.2788 163.187 99.7855 163.56C100.292 163.92 100.925 164.1 101.685 164.1C102.632 164.1 103.339 163.813 103.805 163.24C104.285 162.667 104.525 161.907 104.525 160.96C104.525 160 104.285 159.267 103.805 158.76C103.325 158.24 102.619 157.98 101.685 157.98C101.032 157.98 100.479 158.147 100.025 158.48C99.5855 158.8 99.2655 159.24 99.0655 159.8H96.9055V151.38H105.705V153.38ZM109.079 158.52C109.079 156.213 109.466 154.413 110.239 153.12C111.026 151.813 112.372 151.16 114.279 151.16C116.186 151.16 117.526 151.813 118.299 153.12C119.086 154.413 119.479 156.213 119.479 158.52C119.479 160.853 119.086 162.68 118.299 164C117.526 165.307 116.186 165.96 114.279 165.96C112.372 165.96 111.026 165.307 110.239 164C109.466 162.68 109.079 160.853 109.079 158.52ZM117.239 158.52C117.239 157.44 117.166 156.527 117.019 155.78C116.886 155.033 116.606 154.427 116.179 153.96C115.752 153.48 115.119 153.24 114.279 153.24C113.439 153.24 112.806 153.48 112.379 153.96C111.952 154.427 111.666 155.033 111.519 155.78C111.386 156.527 111.319 157.44 111.319 158.52C111.319 159.64 111.386 160.58 111.519 161.34C111.652 162.1 111.932 162.713 112.359 163.18C112.799 163.647 113.439 163.88 114.279 163.88C115.119 163.88 115.752 163.647 116.179 163.18C116.619 162.713 116.906 162.1 117.039 161.34C117.172 160.58 117.239 159.64 117.239 158.52ZM129.751 164.06C130.591 164.06 131.325 163.887 131.951 163.54C132.591 163.18 133.091 162.653 133.451 161.96H136.191C135.671 163.293 134.838 164.32 133.691 165.04C132.545 165.76 131.231 166.12 129.751 166.12C128.191 166.12 126.805 165.7 125.591 164.86C124.378 164.007 123.531 162.873 123.051 161.46H121.211V159.9H122.691C122.665 159.527 122.651 159.233 122.651 159.02C122.651 158.807 122.665 158.513 122.691 158.14H121.211V156.58H123.051C123.531 155.167 124.378 154.04 125.591 153.2C126.805 152.347 128.191 151.92 129.751 151.92C131.218 151.92 132.525 152.287 133.671 153.02C134.831 153.74 135.671 154.767 136.191 156.1H133.451C133.091 155.407 132.591 154.887 131.951 154.54C131.325 154.18 130.591 154 129.751 154C128.778 154 127.918 154.227 127.171 154.68C126.438 155.133 125.878 155.767 125.491 156.58H129.751V158.14H125.051C125.011 158.42 124.991 158.713 124.991 159.02C124.991 159.327 125.011 159.62 125.051 159.9H129.751V161.46H125.491C125.878 162.287 126.438 162.927 127.171 163.38C127.918 163.833 128.778 164.06 129.751 164.06Z" fill="#212121"/>
<path d="M91.2939 250.8C91.1472 250.187 90.8806 249.727 90.4939 249.42C90.1072 249.113 89.5672 248.96 88.8739 248.96C87.8206 248.96 87.0339 249.367 86.5139 250.18C85.9939 250.98 85.7206 252.313 85.6939 254.18C86.0406 253.593 86.5472 253.14 87.2139 252.82C87.8806 252.5 88.6006 252.34 89.3739 252.34C90.2539 252.34 91.0272 252.533 91.6939 252.92C92.3739 253.293 92.9006 253.84 93.2739 254.56C93.6606 255.28 93.8539 256.14 93.8539 257.14C93.8539 258.073 93.6672 258.907 93.2939 259.64C92.9339 260.373 92.3939 260.953 91.6739 261.38C90.9539 261.793 90.0872 262 89.0739 262C87.7006 262 86.6206 261.7 85.8339 261.1C85.0606 260.487 84.5139 259.627 84.1939 258.52C83.8872 257.413 83.7339 256.033 83.7339 254.38C83.7339 249.5 85.4539 247.06 88.8939 247.06C90.2272 247.06 91.2739 247.42 92.0339 248.14C92.8072 248.86 93.2606 249.747 93.3939 250.8H91.2939ZM88.8739 254.26C88.0606 254.26 87.3672 254.507 86.7939 255C86.2339 255.48 85.9539 256.18 85.9539 257.1C85.9539 258.02 86.2139 258.753 86.7339 259.3C87.2672 259.833 88.0072 260.1 88.9539 260.1C89.7939 260.1 90.4539 259.84 90.9339 259.32C91.4272 258.8 91.6739 258.107 91.6739 257.24C91.6739 256.333 91.4339 255.613 90.9539 255.08C90.4872 254.533 89.7939 254.26 88.8739 254.26ZM96.2859 254.52C96.2859 252.213 96.6726 250.413 97.4459 249.12C98.2326 247.813 99.5793 247.16 101.486 247.16C103.393 247.16 104.733 247.813 105.506 249.12C106.293 250.413 106.686 252.213 106.686 254.52C106.686 256.853 106.293 258.68 105.506 260C104.733 261.307 103.393 261.96 101.486 261.96C99.5793 261.96 98.2326 261.307 97.4459 260C96.6726 258.68 96.2859 256.853 96.2859 254.52ZM104.446 254.52C104.446 253.44 104.373 252.527 104.226 251.78C104.093 251.033 103.813 250.427 103.386 249.96C102.959 249.48 102.326 249.24 101.486 249.24C100.646 249.24 100.013 249.48 99.5859 249.96C99.1593 250.427 98.8726 251.033 98.7259 251.78C98.5926 252.527 98.5259 253.44 98.5259 254.52C98.5259 255.64 98.5926 256.58 98.7259 257.34C98.8593 258.1 99.1393 258.713 99.5659 259.18C100.006 259.647 100.646 259.88 101.486 259.88C102.326 259.88 102.959 259.647 103.386 259.18C103.826 258.713 104.113 258.1 104.246 257.34C104.379 256.58 104.446 255.64 104.446 254.52ZM109.098 254.52C109.098 252.213 109.485 250.413 110.258 249.12C111.045 247.813 112.392 247.16 114.298 247.16C116.205 247.16 117.545 247.813 118.318 249.12C119.105 250.413 119.498 252.213 119.498 254.52C119.498 256.853 119.105 258.68 118.318 260C117.545 261.307 116.205 261.96 114.298 261.96C112.392 261.96 111.045 261.307 110.258 260C109.485 258.68 109.098 256.853 109.098 254.52ZM117.258 254.52C117.258 253.44 117.185 252.527 117.038 251.78C116.905 251.033 116.625 250.427 116.198 249.96C115.772 249.48 115.138 249.24 114.298 249.24C113.458 249.24 112.825 249.48 112.398 249.96C111.972 250.427 111.685 251.033 111.538 251.78C111.405 252.527 111.338 253.44 111.338 254.52C111.338 255.64 111.405 256.58 111.538 257.34C111.672 258.1 111.952 258.713 112.378 259.18C112.818 259.647 113.458 259.88 114.298 259.88C115.138 259.88 115.772 259.647 116.198 259.18C116.638 258.713 116.925 258.1 117.058 257.34C117.192 256.58 117.258 255.64 117.258 254.52ZM129.771 260.06C130.611 260.06 131.344 259.887 131.971 259.54C132.611 259.18 133.111 258.653 133.471 257.96H136.211C135.691 259.293 134.858 260.32 133.711 261.04C132.564 261.76 131.251 262.12 129.771 262.12C128.211 262.12 126.824 261.7 125.611 260.86C124.398 260.007 123.551 258.873 123.071 257.46H121.231V255.9H122.711C122.684 255.527 122.671 255.233 122.671 255.02C122.671 254.807 122.684 254.513 122.711 254.14H121.231V252.58H123.071C123.551 251.167 124.398 250.04 125.611 249.2C126.824 248.347 128.211 247.92 129.771 247.92C131.238 247.92 132.544 248.287 133.691 249.02C134.851 249.74 135.691 250.767 136.211 252.1H133.471C133.111 251.407 132.611 250.887 131.971 250.54C131.344 250.18 130.611 250 129.771 250C128.798 250 127.938 250.227 127.191 250.68C126.458 251.133 125.898 251.767 125.511 252.58H129.771V254.14H125.071C125.031 254.42 125.011 254.713 125.011 255.02C125.011 255.327 125.031 255.62 125.071 255.9H129.771V257.46H125.511C125.898 258.287 126.458 258.927 127.191 259.38C127.938 259.833 128.798 260.06 129.771 260.06Z" fill="#212121"/>
<path d="M83.1348 354.96V353.24L89.8548 343.6H92.6148V352.98H94.4748V354.96H92.6148V358H90.3748V354.96H83.1348ZM90.4748 345.92L85.7548 352.98H90.4748V345.92ZM105.764 345.38H99.0641V349.36C99.3441 348.987 99.7574 348.673 100.304 348.42C100.864 348.167 101.457 348.04 102.084 348.04C103.204 348.04 104.111 348.28 104.804 348.76C105.511 349.24 106.011 349.847 106.304 350.58C106.611 351.313 106.764 352.087 106.764 352.9C106.764 353.887 106.571 354.767 106.184 355.54C105.811 356.3 105.244 356.9 104.484 357.34C103.737 357.78 102.817 358 101.724 358C100.271 358 99.1041 357.64 98.2241 356.92C97.3441 356.2 96.8174 355.247 96.6441 354.06H98.8641C99.0107 354.687 99.3374 355.187 99.8441 355.56C100.351 355.92 100.984 356.1 101.744 356.1C102.691 356.1 103.397 355.813 103.864 355.24C104.344 354.667 104.584 353.907 104.584 352.96C104.584 352 104.344 351.267 103.864 350.76C103.384 350.24 102.677 349.98 101.744 349.98C101.091 349.98 100.537 350.147 100.084 350.48C99.6441 350.8 99.3241 351.24 99.1241 351.8H96.9641V343.38H105.764V345.38ZM109.138 350.52C109.138 348.213 109.524 346.413 110.298 345.12C111.084 343.813 112.431 343.16 114.338 343.16C116.244 343.16 117.584 343.813 118.358 345.12C119.144 346.413 119.538 348.213 119.538 350.52C119.538 352.853 119.144 354.68 118.358 356C117.584 357.307 116.244 357.96 114.338 357.96C112.431 357.96 111.084 357.307 110.298 356C109.524 354.68 109.138 352.853 109.138 350.52ZM117.298 350.52C117.298 349.44 117.224 348.527 117.078 347.78C116.944 347.033 116.664 346.427 116.238 345.96C115.811 345.48 115.178 345.24 114.338 345.24C113.498 345.24 112.864 345.48 112.438 345.96C112.011 346.427 111.724 347.033 111.578 347.78C111.444 348.527 111.378 349.44 111.378 350.52C111.378 351.64 111.444 352.58 111.578 353.34C111.711 354.1 111.991 354.713 112.418 355.18C112.858 355.647 113.498 355.88 114.338 355.88C115.178 355.88 115.811 355.647 116.238 355.18C116.678 354.713 116.964 354.1 117.098 353.34C117.231 352.58 117.298 351.64 117.298 350.52ZM129.81 356.06C130.65 356.06 131.383 355.887 132.01 355.54C132.65 355.18 133.15 354.653 133.51 353.96H136.25C135.73 355.293 134.897 356.32 133.75 357.04C132.603 357.76 131.29 358.12 129.81 358.12C128.25 358.12 126.863 357.7 125.65 356.86C124.437 356.007 123.59 354.873 123.11 353.46H121.27V351.9H122.75C122.723 351.527 122.71 351.233 122.71 351.02C122.71 350.807 122.723 350.513 122.75 350.14H121.27V348.58H123.11C123.59 347.167 124.437 346.04 125.65 345.2C126.863 344.347 128.25 343.92 129.81 343.92C131.277 343.92 132.583 344.287 133.73 345.02C134.89 345.74 135.73 346.767 136.25 348.1H133.51C133.15 347.407 132.65 346.887 132.01 346.54C131.383 346.18 130.65 346 129.81 346C128.837 346 127.977 346.227 127.23 346.68C126.497 347.133 125.937 347.767 125.55 348.58H129.81V350.14H125.11C125.07 350.42 125.05 350.713 125.05 351.02C125.05 351.327 125.07 351.62 125.11 351.9H129.81V353.46H125.55C125.937 354.287 126.497 354.927 127.23 355.38C127.977 355.833 128.837 356.06 129.81 356.06Z" fill="#212121"/>
<path d="M433.267 58.8C433.12 58.1867 432.853 57.7267 432.467 57.42C432.08 57.1133 431.54 56.96 430.847 56.96C429.793 56.96 429.007 57.3667 428.487 58.18C427.967 58.98 427.693 60.3133 427.667 62.18C428.013 61.5933 428.52 61.14 429.187 60.82C429.853 60.5 430.573 60.34 431.347 60.34C432.227 60.34 433 60.5333 433.667 60.92C434.347 61.2933 434.873 61.84 435.247 62.56C435.633 63.28 435.827 64.14 435.827 65.14C435.827 66.0733 435.64 66.9067 435.267 67.64C434.907 68.3733 434.367 68.9533 433.647 69.38C432.927 69.7933 432.06 70 431.047 70C429.673 70 428.593 69.7 427.807 69.1C427.033 68.4867 426.487 67.6267 426.167 66.52C425.86 65.4133 425.707 64.0333 425.707 62.38C425.707 57.5 427.427 55.06 430.867 55.06C432.2 55.06 433.247 55.42 434.007 56.14C434.78 56.86 435.233 57.7467 435.367 58.8H433.267ZM430.847 62.26C430.033 62.26 429.34 62.5067 428.767 63C428.207 63.48 427.927 64.18 427.927 65.1C427.927 66.02 428.187 66.7533 428.707 67.3C429.24 67.8333 429.98 68.1 430.927 68.1C431.767 68.1 432.427 67.84 432.907 67.32C433.4 66.8 433.647 66.1067 433.647 65.24C433.647 64.3333 433.407 63.6133 432.927 63.08C432.46 62.5333 431.767 62.26 430.847 62.26ZM442.994 64.44C442.994 63.3333 443.221 62.3533 443.674 61.5C444.141 60.6467 444.767 59.9867 445.554 59.52C446.354 59.04 447.241 58.8 448.214 58.8C448.934 58.8 449.641 58.96 450.334 59.28C451.041 59.5867 451.601 60 452.014 60.52V55.2H454.314V70H452.014V68.34C451.641 68.8733 451.121 69.3133 450.454 69.66C449.801 70.0067 449.047 70.18 448.194 70.18C447.234 70.18 446.354 69.94 445.554 69.46C444.767 68.9667 444.141 68.2867 443.674 67.42C443.221 66.54 442.994 65.5467 442.994 64.44ZM452.014 64.48C452.014 63.72 451.854 63.06 451.534 62.5C451.227 61.94 450.821 61.5133 450.314 61.22C449.807 60.9267 449.261 60.78 448.674 60.78C448.087 60.78 447.541 60.9267 447.034 61.22C446.527 61.5 446.114 61.92 445.794 62.48C445.487 63.0267 445.334 63.68 445.334 64.44C445.334 65.2 445.487 65.8667 445.794 66.44C446.114 67.0133 446.527 67.4533 447.034 67.76C447.554 68.0533 448.101 68.2 448.674 68.2C449.261 68.2 449.807 68.0533 450.314 67.76C450.821 67.4667 451.227 67.04 451.534 66.48C451.854 65.9067 452.014 65.24 452.014 64.48ZM462.869 58.8C463.735 58.8 464.509 58.98 465.189 59.34C465.882 59.7 466.422 60.2333 466.809 60.94C467.195 61.6467 467.389 62.5 467.389 63.5V70H465.129V63.84C465.129 62.8533 464.882 62.1 464.389 61.58C463.895 61.0467 463.222 60.78 462.369 60.78C461.515 60.78 460.835 61.0467 460.329 61.58C459.835 62.1 459.589 62.8533 459.589 63.84V70H457.309V58.98H459.589V60.24C459.962 59.7867 460.435 59.4333 461.009 59.18C461.595 58.9267 462.215 58.8 462.869 58.8ZM471.457 57.52C471.044 57.52 470.697 57.38 470.417 57.1C470.137 56.82 469.997 56.4733 469.997 56.06C469.997 55.6467 470.137 55.3 470.417 55.02C470.697 54.74 471.044 54.6 471.457 54.6C471.857 54.6 472.197 54.74 472.477 55.02C472.757 55.3 472.897 55.6467 472.897 56.06C472.897 56.4733 472.757 56.82 472.477 57.1C472.197 57.38 471.857 57.52 471.457 57.52ZM472.577 58.98V70H470.297V58.98H472.577ZM484.766 70.18C483.899 70.18 483.119 70.0267 482.426 69.72C481.746 69.4 481.206 68.9733 480.806 68.44C480.406 67.8933 480.192 67.2867 480.166 66.62H482.526C482.566 67.0867 482.786 67.48 483.186 67.8C483.599 68.1067 484.112 68.26 484.726 68.26C485.366 68.26 485.859 68.14 486.206 67.9C486.566 67.6467 486.746 67.3267 486.746 66.94C486.746 66.5267 486.546 66.22 486.146 66.02C485.759 65.82 485.139 65.6 484.286 65.36C483.459 65.1333 482.786 64.9133 482.266 64.7C481.746 64.4867 481.292 64.16 480.906 63.72C480.532 63.28 480.346 62.7 480.346 61.98C480.346 61.3933 480.519 60.86 480.866 60.38C481.212 59.8867 481.706 59.5 482.346 59.22C482.999 58.94 483.746 58.8 484.586 58.8C485.839 58.8 486.846 59.12 487.606 59.76C488.379 60.3867 488.792 61.2467 488.846 62.34H486.566C486.526 61.8467 486.326 61.4533 485.966 61.16C485.606 60.8667 485.119 60.72 484.506 60.72C483.906 60.72 483.446 60.8333 483.126 61.06C482.806 61.2867 482.646 61.5867 482.646 61.96C482.646 62.2533 482.752 62.5 482.966 62.7C483.179 62.9 483.439 63.06 483.746 63.18C484.052 63.2867 484.506 63.4267 485.106 63.6C485.906 63.8133 486.559 64.0333 487.066 64.26C487.586 64.4733 488.032 64.7933 488.406 65.22C488.779 65.6467 488.972 66.2133 488.986 66.92C488.986 67.5467 488.812 68.1067 488.466 68.6C488.119 69.0933 487.626 69.48 486.986 69.76C486.359 70.04 485.619 70.18 484.766 70.18ZM495.809 64.5L500.889 70H497.809L493.729 65.26V70H491.449V55.2H493.729V63.8L497.729 58.98H500.889L495.809 64.5ZM503.683 57.52C503.27 57.52 502.923 57.38 502.643 57.1C502.363 56.82 502.223 56.4733 502.223 56.06C502.223 55.6467 502.363 55.3 502.643 55.02C502.923 54.74 503.27 54.6 503.683 54.6C504.083 54.6 504.423 54.74 504.703 55.02C504.983 55.3 505.123 55.6467 505.123 56.06C505.123 56.4733 504.983 56.82 504.703 57.1C504.423 57.38 504.083 57.52 503.683 57.52ZM504.803 58.98V70H502.523V58.98H504.803ZM510.077 60.6C510.464 60.0933 510.99 59.6667 511.657 59.32C512.324 58.9733 513.077 58.8 513.917 58.8C514.877 58.8 515.75 59.04 516.537 59.52C517.337 59.9867 517.964 60.6467 518.417 61.5C518.87 62.3533 519.097 63.3333 519.097 64.44C519.097 65.5467 518.87 66.54 518.417 67.42C517.964 68.2867 517.337 68.9667 516.537 69.46C515.75 69.94 514.877 70.18 513.917 70.18C513.077 70.18 512.33 70.0133 511.677 69.68C511.024 69.3333 510.49 68.9067 510.077 68.4V75.24H507.797V58.98H510.077V60.6ZM516.777 64.44C516.777 63.68 516.617 63.0267 516.297 62.48C515.99 61.92 515.577 61.5 515.057 61.22C514.55 60.9267 514.004 60.78 513.417 60.78C512.844 60.78 512.297 60.9267 511.777 61.22C511.27 61.5133 510.857 61.94 510.537 62.5C510.23 63.06 510.077 63.72 510.077 64.48C510.077 65.24 510.23 65.9067 510.537 66.48C510.857 67.04 511.27 67.4667 511.777 67.76C512.297 68.0533 512.844 68.2 513.417 68.2C514.004 68.2 514.55 68.0533 515.057 67.76C515.577 67.4533 515.99 67.0133 516.297 66.44C516.617 65.8667 516.777 65.2 516.777 64.44ZM520.592 64.44C520.592 63.3333 520.818 62.3533 521.272 61.5C521.738 60.6467 522.365 59.9867 523.152 59.52C523.952 59.04 524.832 58.8 525.792 58.8C526.658 58.8 527.412 58.9733 528.052 59.32C528.705 59.6533 529.225 60.0733 529.612 60.58V58.98H531.912V70H529.612V68.36C529.225 68.88 528.698 69.3133 528.032 69.66C527.365 70.0067 526.605 70.18 525.752 70.18C524.805 70.18 523.938 69.94 523.152 69.46C522.365 68.9667 521.738 68.2867 521.272 67.42C520.818 66.54 520.592 65.5467 520.592 64.44ZM529.612 64.48C529.612 63.72 529.452 63.06 529.132 62.5C528.825 61.94 528.418 61.5133 527.912 61.22C527.405 60.9267 526.858 60.78 526.272 60.78C525.685 60.78 525.138 60.9267 524.632 61.22C524.125 61.5 523.712 61.92 523.392 62.48C523.085 63.0267 522.932 63.68 522.932 64.44C522.932 65.2 523.085 65.8667 523.392 66.44C523.712 67.0133 524.125 67.4533 524.632 67.76C525.152 68.0533 525.698 68.2 526.272 68.2C526.858 68.2 527.405 68.0533 527.912 67.76C528.418 67.4667 528.825 67.04 529.132 66.48C529.452 65.9067 529.612 65.24 529.612 64.48ZM538.906 70.18C538.04 70.18 537.26 70.0267 536.566 69.72C535.886 69.4 535.346 68.9733 534.946 68.44C534.546 67.8933 534.333 67.2867 534.306 66.62H536.666C536.706 67.0867 536.926 67.48 537.326 67.8C537.74 68.1067 538.253 68.26 538.866 68.26C539.506 68.26 540 68.14 540.346 67.9C540.706 67.6467 540.886 67.3267 540.886 66.94C540.886 66.5267 540.686 66.22 540.286 66.02C539.9 65.82 539.28 65.6 538.426 65.36C537.6 65.1333 536.926 64.9133 536.406 64.7C535.886 64.4867 535.433 64.16 535.046 63.72C534.673 63.28 534.486 62.7 534.486 61.98C534.486 61.3933 534.66 60.86 535.006 60.38C535.353 59.8867 535.846 59.5 536.486 59.22C537.14 58.94 537.886 58.8 538.726 58.8C539.98 58.8 540.986 59.12 541.746 59.76C542.52 60.3867 542.933 61.2467 542.986 62.34H540.706C540.666 61.8467 540.466 61.4533 540.106 61.16C539.746 60.8667 539.26 60.72 538.646 60.72C538.046 60.72 537.586 60.8333 537.266 61.06C536.946 61.2867 536.786 61.5867 536.786 61.96C536.786 62.2533 536.893 62.5 537.106 62.7C537.32 62.9 537.58 63.06 537.886 63.18C538.193 63.2867 538.646 63.4267 539.246 63.6C540.046 63.8133 540.7 64.0333 541.206 64.26C541.726 64.4733 542.173 64.7933 542.546 65.22C542.92 65.6467 543.113 66.2133 543.126 66.92C543.126 67.5467 542.953 68.1067 542.606 68.6C542.26 69.0933 541.766 69.48 541.126 69.76C540.5 70.04 539.76 70.18 538.906 70.18ZM549.59 70.18C548.723 70.18 547.943 70.0267 547.25 69.72C546.57 69.4 546.03 68.9733 545.63 68.44C545.23 67.8933 545.017 67.2867 544.99 66.62H547.35C547.39 67.0867 547.61 67.48 548.01 67.8C548.423 68.1067 548.937 68.26 549.55 68.26C550.19 68.26 550.683 68.14 551.03 67.9C551.39 67.6467 551.57 67.3267 551.57 66.94C551.57 66.5267 551.37 66.22 550.97 66.02C550.583 65.82 549.963 65.6 549.11 65.36C548.283 65.1333 547.61 64.9133 547.09 64.7C546.57 64.4867 546.117 64.16 545.73 63.72C545.357 63.28 545.17 62.7 545.17 61.98C545.17 61.3933 545.343 60.86 545.69 60.38C546.037 59.8867 546.53 59.5 547.17 59.22C547.823 58.94 548.57 58.8 549.41 58.8C550.663 58.8 551.67 59.12 552.43 59.76C553.203 60.3867 553.617 61.2467 553.67 62.34H551.39C551.35 61.8467 551.15 61.4533 550.79 61.16C550.43 60.8667 549.943 60.72 549.33 60.72C548.73 60.72 548.27 60.8333 547.95 61.06C547.63 61.2867 547.47 61.5867 547.47 61.96C547.47 62.2533 547.577 62.5 547.79 62.7C548.003 62.9 548.263 63.06 548.57 63.18C548.877 63.2867 549.33 63.4267 549.93 63.6C550.73 63.8133 551.383 64.0333 551.89 64.26C552.41 64.4733 552.857 64.7933 553.23 65.22C553.603 65.6467 553.797 66.2133 553.81 66.92C553.81 67.5467 553.637 68.1067 553.29 68.6C552.943 69.0933 552.45 69.48 551.81 69.76C551.183 70.04 550.443 70.18 549.59 70.18Z" fill="#212121"/>
<path d="M606.887 57.18L601.327 70H599.027L604.647 57.42H597.247V55.48H606.887V57.18ZM619.114 70.18C618.074 70.18 617.134 69.9467 616.294 69.48C615.454 69 614.794 68.3333 614.314 67.48C613.834 66.6133 613.594 65.6133 613.594 64.48C613.594 63.36 613.841 62.3667 614.334 61.5C614.827 60.6333 615.501 59.9667 616.354 59.5C617.207 59.0333 618.161 58.8 619.214 58.8C620.267 58.8 621.221 59.0333 622.074 59.5C622.927 59.9667 623.601 60.6333 624.094 61.5C624.587 62.3667 624.834 63.36 624.834 64.48C624.834 65.6 624.581 66.5933 624.074 67.46C623.567 68.3267 622.874 69 621.994 69.48C621.127 69.9467 620.167 70.18 619.114 70.18ZM619.114 68.2C619.701 68.2 620.247 68.06 620.754 67.78C621.274 67.5 621.694 67.08 622.014 66.52C622.334 65.96 622.494 65.28 622.494 64.48C622.494 63.68 622.341 63.0067 622.034 62.46C621.727 61.9 621.321 61.48 620.814 61.2C620.307 60.92 619.761 60.78 619.174 60.78C618.587 60.78 618.041 60.92 617.534 61.2C617.041 61.48 616.647 61.9 616.354 62.46C616.061 63.0067 615.914 63.68 615.914 64.48C615.914 65.6667 616.214 66.5867 616.814 67.24C617.427 67.88 618.194 68.2 619.114 68.2ZM629.368 60.62C629.755 60.0867 630.281 59.6533 630.948 59.32C631.628 58.9733 632.381 58.8 633.208 58.8C634.181 58.8 635.061 59.0333 635.848 59.5C636.635 59.9667 637.255 60.6333 637.708 61.5C638.161 62.3533 638.388 63.3333 638.388 64.44C638.388 65.5467 638.161 66.54 637.708 67.42C637.255 68.2867 636.628 68.9667 635.828 69.46C635.041 69.94 634.168 70.18 633.208 70.18C632.355 70.18 631.595 70.0133 630.928 69.68C630.275 69.3467 629.755 68.92 629.368 68.4V70H627.088V55.2H629.368V60.62ZM636.068 64.44C636.068 63.68 635.908 63.0267 635.588 62.48C635.281 61.92 634.868 61.5 634.348 61.22C633.841 60.9267 633.295 60.78 632.708 60.78C632.135 60.78 631.588 60.9267 631.068 61.22C630.561 61.5133 630.148 61.94 629.828 62.5C629.521 63.06 629.368 63.72 629.368 64.48C629.368 65.24 629.521 65.9067 629.828 66.48C630.148 67.04 630.561 67.4667 631.068 67.76C631.588 68.0533 632.135 68.2 632.708 68.2C633.295 68.2 633.841 68.0533 634.348 67.76C634.868 67.4533 635.281 67.0133 635.588 66.44C635.908 65.8667 636.068 65.2 636.068 64.44ZM641.803 57.52C641.389 57.52 641.043 57.38 640.763 57.1C640.483 56.82 640.343 56.4733 640.343 56.06C640.343 55.6467 640.483 55.3 640.763 55.02C641.043 54.74 641.389 54.6 641.803 54.6C642.203 54.6 642.543 54.74 642.823 55.02C643.103 55.3 643.243 55.6467 643.243 56.06C643.243 56.4733 643.103 56.82 642.823 57.1C642.543 57.38 642.203 57.52 641.803 57.52ZM642.923 58.98V70H640.643V58.98H642.923ZM645.156 64.44C645.156 63.3333 645.383 62.3533 645.836 61.5C646.303 60.6467 646.929 59.9867 647.716 59.52C648.516 59.04 649.396 58.8 650.356 58.8C651.223 58.8 651.976 58.9733 652.616 59.32C653.269 59.6533 653.789 60.0733 654.176 60.58V58.98H656.476V70H654.176V68.36C653.789 68.88 653.263 69.3133 652.596 69.66C651.929 70.0067 651.169 70.18 650.316 70.18C649.369 70.18 648.503 69.94 647.716 69.46C646.929 68.9667 646.303 68.2867 645.836 67.42C645.383 66.54 645.156 65.5467 645.156 64.44ZM654.176 64.48C654.176 63.72 654.016 63.06 653.696 62.5C653.389 61.94 652.983 61.5133 652.476 61.22C651.969 60.9267 651.423 60.78 650.836 60.78C650.249 60.78 649.703 60.9267 649.196 61.22C648.689 61.5 648.276 61.92 647.956 62.48C647.649 63.0267 647.496 63.68 647.496 64.44C647.496 65.2 647.649 65.8667 647.956 66.44C648.276 67.0133 648.689 67.4533 649.196 67.76C649.716 68.0533 650.263 68.2 650.836 68.2C651.423 68.2 651.969 68.0533 652.476 67.76C652.983 67.4667 653.389 67.04 653.696 66.48C654.016 65.9067 654.176 65.24 654.176 64.48ZM658.711 64.44C658.711 63.3333 658.937 62.3533 659.391 61.5C659.857 60.6467 660.484 59.9867 661.271 59.52C662.071 59.04 662.957 58.8 663.931 58.8C664.651 58.8 665.357 58.96 666.051 59.28C666.757 59.5867 667.317 60 667.731 60.52V55.2H670.031V70H667.731V68.34C667.357 68.8733 666.837 69.3133 666.171 69.66C665.517 70.0067 664.764 70.18 663.911 70.18C662.951 70.18 662.071 69.94 661.271 69.46C660.484 68.9667 659.857 68.2867 659.391 67.42C658.937 66.54 658.711 65.5467 658.711 64.44ZM667.731 64.48C667.731 63.72 667.571 63.06 667.251 62.5C666.944 61.94 666.537 61.5133 666.031 61.22C665.524 60.9267 664.977 60.78 664.391 60.78C663.804 60.78 663.257 60.9267 662.751 61.22C662.244 61.5 661.831 61.92 661.511 62.48C661.204 63.0267 661.051 63.68 661.051 64.44C661.051 65.2 661.204 65.8667 661.511 66.44C661.831 67.0133 662.244 67.4533 662.751 67.76C663.271 68.0533 663.817 68.2 664.391 68.2C664.977 68.2 665.524 68.0533 666.031 67.76C666.537 67.4667 666.944 67.04 667.251 66.48C667.571 65.9067 667.731 65.24 667.731 64.48ZM677.805 70.18C676.765 70.18 675.825 69.9467 674.985 69.48C674.145 69 673.485 68.3333 673.005 67.48C672.525 66.6133 672.285 65.6133 672.285 64.48C672.285 63.36 672.532 62.3667 673.025 61.5C673.519 60.6333 674.192 59.9667 675.045 59.5C675.899 59.0333 676.852 58.8 677.905 58.8C678.959 58.8 679.912 59.0333 680.765 59.5C681.619 59.9667 682.292 60.6333 682.785 61.5C683.279 62.3667 683.525 63.36 683.525 64.48C683.525 65.6 683.272 66.5933 682.765 67.46C682.259 68.3267 681.565 69 680.685 69.48C679.819 69.9467 678.859 70.18 677.805 70.18ZM677.805 68.2C678.392 68.2 678.939 68.06 679.445 67.78C679.965 67.5 680.385 67.08 680.705 66.52C681.025 65.96 681.185 65.28 681.185 64.48C681.185 63.68 681.032 63.0067 680.725 62.46C680.419 61.9 680.012 61.48 679.505 61.2C678.999 60.92 678.452 60.78 677.865 60.78C677.279 60.78 676.732 60.92 676.225 61.2C675.732 61.48 675.339 61.9 675.045 62.46C674.752 63.0067 674.605 63.68 674.605 64.48C674.605 65.6667 674.905 66.5867 675.505 67.24C676.119 67.88 676.885 68.2 677.805 68.2ZM690.139 64.5L695.219 70H692.139L688.059 65.26V70H685.779V55.2H688.059V63.8L692.059 58.98H695.219L690.139 64.5ZM701.634 70.18C700.594 70.18 699.654 69.9467 698.814 69.48C697.974 69 697.314 68.3333 696.834 67.48C696.354 66.6133 696.114 65.6133 696.114 64.48C696.114 63.36 696.36 62.3667 696.854 61.5C697.347 60.6333 698.02 59.9667 698.874 59.5C699.727 59.0333 700.68 58.8 701.734 58.8C702.787 58.8 703.74 59.0333 704.594 59.5C705.447 59.9667 706.12 60.6333 706.614 61.5C707.107 62.3667 707.354 63.36 707.354 64.48C707.354 65.6 707.1 66.5933 706.594 67.46C706.087 68.3267 705.394 69 704.514 69.48C703.647 69.9467 702.687 70.18 701.634 70.18ZM701.634 68.2C702.22 68.2 702.767 68.06 703.274 67.78C703.794 67.5 704.214 67.08 704.534 66.52C704.854 65.96 705.014 65.28 705.014 64.48C705.014 63.68 704.86 63.0067 704.554 62.46C704.247 61.9 703.84 61.48 703.334 61.2C702.827 60.92 702.28 60.78 701.694 60.78C701.107 60.78 700.56 60.92 700.054 61.2C699.56 61.48 699.167 61.9 698.874 62.46C698.58 63.0067 698.434 63.68 698.434 64.48C698.434 65.6667 698.734 66.5867 699.334 67.24C699.947 67.88 700.714 68.2 701.634 68.2ZM711.887 55.2V70H709.607V55.2H711.887ZM714.121 64.44C714.121 63.3333 714.348 62.3533 714.801 61.5C715.268 60.6467 715.894 59.9867 716.681 59.52C717.481 59.04 718.361 58.8 719.321 58.8C720.188 58.8 720.941 58.9733 721.581 59.32C722.234 59.6533 722.754 60.0733 723.141 60.58V58.98H725.441V70H723.141V68.36C722.754 68.88 722.228 69.3133 721.561 69.66C720.894 70.0067 720.134 70.18 719.281 70.18C718.334 70.18 717.468 69.94 716.681 69.46C715.894 68.9667 715.268 68.2867 714.801 67.42C714.348 66.54 714.121 65.5467 714.121 64.44ZM723.141 64.48C723.141 63.72 722.981 63.06 722.661 62.5C722.354 61.94 721.948 61.5133 721.441 61.22C720.934 60.9267 720.388 60.78 719.801 60.78C719.214 60.78 718.668 60.9267 718.161 61.22C717.654 61.5 717.241 61.92 716.921 62.48C716.614 63.0267 716.461 63.68 716.461 64.44C716.461 65.2 716.614 65.8667 716.921 66.44C717.241 67.0133 717.654 67.4533 718.161 67.76C718.681 68.0533 719.228 68.2 719.801 68.2C720.388 68.2 720.934 68.0533 721.441 67.76C721.948 67.4667 722.354 67.04 722.661 66.48C722.981 65.9067 723.141 65.24 723.141 64.48ZM727.676 64.48C727.676 63.3467 727.902 62.3533 728.356 61.5C728.822 60.6333 729.462 59.9667 730.276 59.5C731.089 59.0333 732.022 58.8 733.076 58.8C734.409 58.8 735.509 59.12 736.376 59.76C737.256 60.3867 737.849 61.2867 738.156 62.46H735.696C735.496 61.9133 735.176 61.4867 734.736 61.18C734.296 60.8733 733.742 60.72 733.076 60.72C732.142 60.72 731.396 61.0533 730.836 61.72C730.289 62.3733 730.016 63.2933 730.016 64.48C730.016 65.6667 730.289 66.5933 730.836 67.26C731.396 67.9267 732.142 68.26 733.076 68.26C734.396 68.26 735.269 67.68 735.696 66.52H738.156C737.836 67.64 737.236 68.5333 736.356 69.2C735.476 69.8533 734.382 70.18 733.076 70.18C732.022 70.18 731.089 69.9467 730.276 69.48C729.462 69 728.822 68.3333 728.356 67.48C727.902 66.6133 727.676 65.6133 727.676 64.48ZM741.588 57.52C741.174 57.52 740.828 57.38 740.548 57.1C740.268 56.82 740.128 56.4733 740.128 56.06C740.128 55.6467 740.268 55.3 740.548 55.02C740.828 54.74 741.174 54.6 741.588 54.6C741.988 54.6 742.328 54.74 742.608 55.02C742.888 55.3 743.028 55.6467 743.028 56.06C743.028 56.4733 742.888 56.82 742.608 57.1C742.328 57.38 741.988 57.52 741.588 57.52ZM742.708 72.16C742.708 73.24 742.434 74.02 741.888 74.5C741.354 74.9933 740.574 75.24 739.548 75.24H738.368V73.32H739.148C739.614 73.32 739.941 73.2267 740.128 73.04C740.328 72.8667 740.428 72.5733 740.428 72.16V58.98H742.708V72.16ZM746.861 57.52C746.448 57.52 746.101 57.38 745.821 57.1C745.541 56.82 745.401 56.4733 745.401 56.06C745.401 55.6467 745.541 55.3 745.821 55.02C746.101 54.74 746.448 54.6 746.861 54.6C747.261 54.6 747.601 54.74 747.881 55.02C748.161 55.3 748.301 55.6467 748.301 56.06C748.301 56.4733 748.161 56.82 747.881 57.1C747.601 57.38 747.261 57.52 746.861 57.52ZM747.981 58.98V70H745.701V58.98H747.981ZM757.315 56.42L758.215 58.02L755.475 59.04L758.215 60.06L757.295 61.7L755.015 59.9L755.435 62.8H753.595L753.975 59.9L751.695 61.74L750.735 60.04L753.455 59.02L750.735 58.04L751.655 56.4L753.995 58.2L753.595 55.28H755.455L755.015 58.2L757.315 56.42Z" fill="#212121"/>
<path d="M831.448 57.18L825.888 70H823.588L829.208 57.42H821.808V55.48H831.448V57.18ZM842.895 70.18C842.028 70.18 841.248 70.0267 840.555 69.72C839.875 69.4 839.335 68.9733 838.935 68.44C838.535 67.8933 838.321 67.2867 838.295 66.62H840.655C840.695 67.0867 840.915 67.48 841.315 67.8C841.728 68.1067 842.241 68.26 842.855 68.26C843.495 68.26 843.988 68.14 844.335 67.9C844.695 67.6467 844.875 67.3267 844.875 66.94C844.875 66.5267 844.675 66.22 844.275 66.02C843.888 65.82 843.268 65.6 842.415 65.36C841.588 65.1333 840.915 64.9133 840.395 64.7C839.875 64.4867 839.421 64.16 839.035 63.72C838.661 63.28 838.475 62.7 838.475 61.98C838.475 61.3933 838.648 60.86 838.995 60.38C839.341 59.8867 839.835 59.5 840.475 59.22C841.128 58.94 841.875 58.8 842.715 58.8C843.968 58.8 844.975 59.12 845.735 59.76C846.508 60.3867 846.921 61.2467 846.975 62.34H844.695C844.655 61.8467 844.455 61.4533 844.095 61.16C843.735 60.8667 843.248 60.72 842.635 60.72C842.035 60.72 841.575 60.8333 841.255 61.06C840.935 61.2867 840.775 61.5867 840.775 61.96C840.775 62.2533 840.881 62.5 841.095 62.7C841.308 62.9 841.568 63.06 841.875 63.18C842.181 63.2867 842.635 63.4267 843.235 63.6C844.035 63.8133 844.688 64.0333 845.195 64.26C845.715 64.4733 846.161 64.7933 846.535 65.22C846.908 65.6467 847.101 66.2133 847.115 66.92C847.115 67.5467 846.941 68.1067 846.595 68.6C846.248 69.0933 845.755 69.48 845.115 69.76C844.488 70.04 843.748 70.18 842.895 70.18ZM844.775 55.84L840.355 58.02V56.34L844.775 53.9V55.84ZM855.138 58.8C856.005 58.8 856.778 58.98 857.458 59.34C858.151 59.7 858.691 60.2333 859.078 60.94C859.465 61.6467 859.658 62.5 859.658 63.5V70H857.398V63.84C857.398 62.8533 857.151 62.1 856.658 61.58C856.165 61.0467 855.491 60.78 854.638 60.78C853.785 60.78 853.105 61.0467 852.598 61.58C852.105 62.1 851.858 62.8533 851.858 63.84V70H849.578V58.98H851.858V60.24C852.231 59.7867 852.705 59.4333 853.278 59.18C853.865 58.9267 854.485 58.8 855.138 58.8ZM863.726 57.52C863.313 57.52 862.966 57.38 862.686 57.1C862.406 56.82 862.266 56.4733 862.266 56.06C862.266 55.6467 862.406 55.3 862.686 55.02C862.966 54.74 863.313 54.6 863.726 54.6C864.126 54.6 864.466 54.74 864.746 55.02C865.026 55.3 865.166 55.6467 865.166 56.06C865.166 56.4733 865.026 56.82 864.746 57.1C864.466 57.38 864.126 57.52 863.726 57.52ZM864.846 58.98V70H862.566V58.98H864.846ZM867.08 64.44C867.08 63.3333 867.307 62.3533 867.76 61.5C868.227 60.6467 868.853 59.9867 869.64 59.52C870.44 59.04 871.32 58.8 872.28 58.8C873.147 58.8 873.9 58.9733 874.54 59.32C875.193 59.6533 875.713 60.0733 876.1 60.58V58.98H878.4V70H876.1V68.36C875.713 68.88 875.187 69.3133 874.52 69.66C873.853 70.0067 873.093 70.18 872.24 70.18C871.293 70.18 870.427 69.94 869.64 69.46C868.853 68.9667 868.227 68.2867 867.76 67.42C867.307 66.54 867.08 65.5467 867.08 64.44ZM876.1 64.48C876.1 63.72 875.94 63.06 875.62 62.5C875.313 61.94 874.907 61.5133 874.4 61.22C873.893 60.9267 873.347 60.78 872.76 60.78C872.173 60.78 871.627 60.9267 871.12 61.22C870.613 61.5 870.2 61.92 869.88 62.48C869.573 63.0267 869.42 63.68 869.42 64.44C869.42 65.2 869.573 65.8667 869.88 66.44C870.2 67.0133 870.613 67.4533 871.12 67.76C871.64 68.0533 872.187 68.2 872.76 68.2C873.347 68.2 873.893 68.0533 874.4 67.76C874.907 67.4667 875.313 67.04 875.62 66.48C875.94 65.9067 876.1 65.24 876.1 64.48ZM880.635 64.44C880.635 63.3333 880.861 62.3533 881.315 61.5C881.781 60.6467 882.408 59.9867 883.195 59.52C883.995 59.04 884.881 58.8 885.855 58.8C886.575 58.8 887.281 58.96 887.975 59.28C888.681 59.5867 889.241 60 889.655 60.52V55.2H891.955V70H889.655V68.34C889.281 68.8733 888.761 69.3133 888.095 69.66C887.441 70.0067 886.688 70.18 885.835 70.18C884.875 70.18 883.995 69.94 883.195 69.46C882.408 68.9667 881.781 68.2867 881.315 67.42C880.861 66.54 880.635 65.5467 880.635 64.44ZM889.655 64.48C889.655 63.72 889.495 63.06 889.175 62.5C888.868 61.94 888.461 61.5133 887.955 61.22C887.448 60.9267 886.901 60.78 886.315 60.78C885.728 60.78 885.181 60.9267 884.675 61.22C884.168 61.5 883.755 61.92 883.435 62.48C883.128 63.0267 882.975 63.68 882.975 64.44C882.975 65.2 883.128 65.8667 883.435 66.44C883.755 67.0133 884.168 67.4533 884.675 67.76C885.195 68.0533 885.741 68.2 886.315 68.2C886.901 68.2 887.448 68.0533 887.955 67.76C888.461 67.4667 888.868 67.04 889.175 66.48C889.495 65.9067 889.655 65.24 889.655 64.48ZM894.189 64.44C894.189 63.3333 894.416 62.3533 894.869 61.5C895.336 60.6467 895.963 59.9867 896.749 59.52C897.549 59.04 898.429 58.8 899.389 58.8C900.256 58.8 901.009 58.9733 901.649 59.32C902.303 59.6533 902.823 60.0733 903.209 60.58V58.98H905.509V70H903.209V68.36C902.823 68.88 902.296 69.3133 901.629 69.66C900.963 70.0067 900.203 70.18 899.349 70.18C898.403 70.18 897.536 69.94 896.749 69.46C895.963 68.9667 895.336 68.2867 894.869 67.42C894.416 66.54 894.189 65.5467 894.189 64.44ZM903.209 64.48C903.209 63.72 903.049 63.06 902.729 62.5C902.423 61.94 902.016 61.5133 901.509 61.22C901.003 60.9267 900.456 60.78 899.869 60.78C899.283 60.78 898.736 60.9267 898.229 61.22C897.723 61.5 897.309 61.92 896.989 62.48C896.683 63.0267 896.529 63.68 896.529 64.44C896.529 65.2 896.683 65.8667 896.989 66.44C897.309 67.0133 897.723 67.4533 898.229 67.76C898.749 68.0533 899.296 68.2 899.869 68.2C900.456 68.2 901.003 68.0533 901.509 67.76C902.016 67.4667 902.423 67.04 902.729 66.48C903.049 65.9067 903.209 65.24 903.209 64.48ZM914.064 58.8C914.931 58.8 915.704 58.98 916.384 59.34C917.077 59.7 917.617 60.2333 918.004 60.94C918.391 61.6467 918.584 62.5 918.584 63.5V70H916.324V63.84C916.324 62.8533 916.077 62.1 915.584 61.58C915.091 61.0467 914.417 60.78 913.564 60.78C912.711 60.78 912.031 61.0467 911.524 61.58C911.031 62.1 910.784 62.8533 910.784 63.84V70H908.504V58.98H910.784V60.24C911.157 59.7867 911.631 59.4333 912.204 59.18C912.791 58.9267 913.411 58.8 914.064 58.8ZM915.764 56.02L911.344 58.2V56.52L915.764 54.08V56.02Z" fill="#212121"/>
<circle cx="300.5" cy="158.5" r="7.5" fill="#212121"/>
<circle cx="489.5" cy="158.5" r="7.5" fill="#212121"/>
<circle cx="300.5" cy="254.5" r="7.5" fill="#212121"/>
<circle cx="489.5" cy="254.5" r="7.5" fill="#212121"/>
<circle cx="679.5" cy="158.5" r="7.5" fill="#212121"/>
<circle cx="870.5" cy="158.5" r="7.5" fill="#212121"/>
<circle cx="679.5" cy="254.5" r="7.5" fill="#212121"/>
<circle cx="300.5" cy="350.5" r="7.5" fill="#212121"/>
<circle cx="489.5" cy="350.5" r="7.5" fill="#212121"/>
</svg>
