<?xml version="1.0" standalone="no"?><svg xmlns="http://www.w3.org/2000/svg" viewBox="0 0 1440 320"><path fill="#000b76" fill-opacity="1" d="M0,256L30,234.7C60,213,120,171,180,165.3C240,160,300,192,360,202.7C420,213,480,203,540,186.7C600,171,660,149,720,165.3C780,181,840,235,900,229.3C960,224,1020,160,1080,128C1140,96,1200,96,1260,101.3C1320,107,1380,117,1410,122.7L1440,128L1440,320L1410,320C1380,320,1320,320,1260,320C1200,320,1140,320,1080,320C1020,320,960,320,900,320C840,320,780,320,720,320C660,320,600,320,540,320C480,320,420,320,360,320C300,320,240,320,180,320C120,320,60,320,30,320L0,320Z"></path></svg>