<?xml version="1.0" standalone="no"?><svg xmlns="http://www.w3.org/2000/svg" viewBox="0 0 1440 320"><path fill="#0099ff" fill-opacity="1" d="M0,256L30,256C60,256,120,256,180,218.7C240,181,300,107,360,96C420,85,480,139,540,160C600,181,660,171,720,160C780,149,840,139,900,122.7C960,107,1020,85,1080,112C1140,139,1200,213,1260,245.3C1320,277,1380,267,1410,261.3L1440,256L1440,320L1410,320C1380,320,1320,320,1260,320C1200,320,1140,320,1080,320C1020,320,960,320,900,320C840,320,780,320,720,320C660,320,600,320,540,320C480,320,420,320,360,320C300,320,240,320,180,320C120,320,60,320,30,320L0,320Z"></path></svg>